<svg width="41" height="26" viewBox="0 0 41 26" fill="none" xmlns="http://www.w3.org/2000/svg">
<mask id="mask0_189_101" style="mask-type:alpha" maskUnits="userSpaceOnUse" x="0" y="0" width="41" height="26">
<path d="M7.04486 14.0937C1.09008 13.5617 0.000610352 16.6992 0.000610352 19.3046C0.000610352 20.7668 0.000610352 22.489 0.845921 23.3575C1.69123 24.226 4.7907 25.155 7.04486 25.155C11.2013 25.155 15.498 25.6734 19.7245 24.5155C22.2604 23.7075 39.1753 13.5013 40.2937 11.7778C41.4208 10.0408 40.012 9.75135 39.7302 7.43542C39.4757 5.34416 35.7854 -0.959852 33.5312 0.48762C32.3365 1.25478 27.6141 6.56692 26.7688 5.40897C26.1592 4.57395 23.1058 0.14548 19.7245 0.7771C16.625 1.35608 15.2162 5.40895 14.9344 8.88288C14.8405 10.0408 13.5256 14.6727 7.04486 14.0937Z" fill="#FA3F3F"/>
</mask>
<g mask="url(#mask0_189_101)">
<path d="M7.04486 14.0937C1.07507 13.7871 0.000610352 16.6992 0.000610352 19.3046C0.000610352 20.7668 0.000610352 22.489 0.845921 23.3575C1.69123 24.226 4.7907 25.155 7.04486 25.155C11.2013 25.155 15.498 25.6734 19.7245 24.5155C22.2604 23.7075 39.1753 13.5013 40.2937 11.7778C41.4208 10.0408 40.012 9.75135 39.7302 7.43542C39.4757 5.34416 35.7854 -0.959852 33.5312 0.48762C32.3365 1.25478 27.6141 6.56692 26.7688 5.40897C26.1592 4.57395 23.1058 0.14548 19.7245 0.7771C16.625 1.35608 15.2162 5.40895 14.9344 8.88288C14.8405 10.0408 12.6803 14.3832 7.04486 14.0937Z" fill="#3CABFC"/>
<path fill-rule="evenodd" clip-rule="evenodd" d="M40.7554 8.84076C40.9338 9.10272 40.8718 9.46373 40.6169 9.64711C40.0539 10.052 39.5633 10.4666 38.9818 10.958C38.8587 11.062 38.7316 11.1695 38.5988 11.2811C37.8431 11.9158 36.9321 12.6591 35.6121 13.5938C32.9758 15.4605 28.7237 18.0796 20.8218 22.1388C20.4914 22.3085 19.6588 22.5918 18.7747 22.8361C17.8822 23.0828 16.8443 23.3159 16.0914 23.3571C14.2382 23.4585 10.8911 23.4328 9.2734 23.3573C6.15797 23.2118 4.01119 22.9443 2.52562 22.6216C1.05036 22.3013 0.176994 21.9164 -0.345402 21.499C-0.591076 21.3027 -0.635333 20.9389 -0.444254 20.6865C-0.253174 20.4341 0.100884 20.3886 0.346558 20.5849C0.669472 20.843 1.34584 21.1819 2.75872 21.4887C4.16129 21.7933 6.24107 22.0565 9.32458 22.2005C10.9153 22.2748 14.2242 22.2996 16.0315 22.2007C16.6598 22.1664 17.6024 21.961 18.4819 21.7179C19.3699 21.4725 20.1009 21.2145 20.3178 21.1031C28.195 17.0565 32.396 14.4647 34.9725 12.6404C36.2588 11.7296 37.1441 11.0073 37.8853 10.3846C38.0118 10.2784 38.1348 10.1744 38.2556 10.0723C38.8386 9.5794 39.3685 9.13142 39.9705 8.69846C40.2255 8.51509 40.5769 8.5788 40.7554 8.84076Z" fill="#8AE4FF"/>
<path fill-rule="evenodd" clip-rule="evenodd" d="M14.0793 9.09373C14.2772 8.76834 14.6944 8.66942 15.0111 8.87279C15.1575 8.96677 15.3515 9.08682 15.5801 9.22825C15.6355 9.2625 15.6929 9.29799 15.7521 9.33468C16.0522 9.52059 16.3927 9.7328 16.7321 9.95255C17.3884 10.3776 18.1117 10.8752 18.5121 11.2866C18.7762 11.5579 18.7762 11.9979 18.5121 12.2692C18.248 12.5405 17.8199 12.5405 17.5558 12.2692C17.28 11.9858 16.6883 11.5667 16.0109 11.1281C15.6834 10.916 15.3524 10.7097 15.0537 10.5247C14.9974 10.4898 14.9419 10.4555 14.8878 10.4219C14.6582 10.2799 14.4512 10.1519 14.2943 10.0511C13.9776 9.84777 13.8813 9.41912 14.0793 9.09373ZM11.8359 12.5505C12.0431 12.2312 12.4629 12.1449 12.7737 12.3578L15.3096 14.0947C15.6204 14.3076 15.7043 14.7389 15.4972 15.0582C15.29 15.3775 14.8701 15.4638 14.5594 15.2509L12.0234 13.514C11.7127 13.3011 11.6287 12.8697 11.8359 12.5505ZM8.88391 13.2559C9.17871 13.0203 9.60358 13.0749 9.83288 13.3778C10.5055 14.2663 11.9002 16.0732 12.3132 16.4975C12.5773 16.7688 12.5773 17.2087 12.3132 17.48C12.0491 17.7514 11.6209 17.7514 11.3568 17.48C10.8681 16.9779 9.40755 15.0793 8.76528 14.2309C8.53599 13.928 8.5891 13.4915 8.88391 13.2559Z" fill="#8AE4FF"/>
</g>
</svg>
