<svg width="46" height="48" viewBox="0 0 46 48" fill="none" xmlns="http://www.w3.org/2000/svg">
<mask id="mask0_189_116" style="mask-type:alpha" maskUnits="userSpaceOnUse" x="1" y="11" width="42" height="27">
<path d="M12.6735 14.8896C8.82896 10.1874 5.89927 11.6144 4.10608 13.4567C3.09976 14.4906 1.91444 15.7084 1.91444 16.9366C1.91444 18.1649 3.4667 21.0735 5.06063 22.7111C7.9997 25.7307 10.6811 29.2187 14.4666 31.4705C16.8159 32.7415 35.8009 37.8131 37.7779 37.4068C39.7703 36.9974 38.9734 35.7692 40.368 33.9269C41.6274 32.2633 43.3567 25.1247 40.7665 24.5106C39.3937 24.1851 32.3984 24.5106 32.5976 23.0777C32.7413 22.0444 33.6301 16.6947 30.8045 14.6849C28.2143 12.8426 24.4287 14.6849 21.8386 16.9366C20.9752 17.6872 16.8575 20.0072 12.6735 14.8896Z" fill="#FA3F3F"/>
</mask>
<g mask="url(#mask0_189_116)">
<path d="M12.6735 14.8896C8.66326 10.3358 5.89927 11.6144 4.10608 13.4567C3.09976 14.4906 1.91444 15.7084 1.91444 16.9366C1.91444 18.1649 3.4667 21.0735 5.06063 22.7111C7.9997 25.7307 10.6811 29.2187 14.4666 31.4705C16.8159 32.7415 35.8009 37.8131 37.7779 37.4068C39.7703 36.9974 38.9734 35.7692 40.368 33.9269C41.6274 32.2633 43.3567 25.1247 40.7665 24.5106C39.3937 24.1851 32.3984 24.5106 32.5976 23.0777C32.7413 22.0444 33.6301 16.6947 30.8045 14.6849C28.2143 12.8426 24.4287 14.6849 21.8386 16.9366C20.9752 17.6872 16.4591 19.1884 12.6735 14.8896Z" fill="#3CABFC"/>
<path fill-rule="evenodd" clip-rule="evenodd" d="M40.1261 35.665C40.072 35.9799 39.7797 36.1901 39.4732 36.1345C38.7965 36.0118 38.1642 35.9486 37.4148 35.8737C37.2562 35.8578 37.0923 35.8414 36.9216 35.8238C35.9504 35.7237 34.7947 35.5875 33.2179 35.2894C30.069 34.6941 25.2598 33.457 16.8786 30.5867C16.5282 30.4667 15.7445 30.062 14.9512 29.5926C14.1503 29.1186 13.2559 28.5294 12.6953 28.0116C11.3151 26.737 8.9659 24.2872 7.87403 23.0585C5.77122 20.6923 4.43735 18.9436 3.60894 17.6362C2.78628 16.3379 2.43357 15.4313 2.35148 14.7566C2.31288 14.4393 2.53194 14.1499 2.84077 14.1103C3.1496 14.0706 3.43126 14.2957 3.46986 14.613C3.5206 15.03 3.76562 15.761 4.5535 17.0044C5.33562 18.2388 6.6251 19.9358 8.70636 22.2778C9.78007 23.4859 12.1027 25.9073 13.4487 27.1504C13.9167 27.5826 14.7245 28.1221 15.5137 28.5892C16.3106 29.0607 17.005 29.4094 17.235 29.4881C25.5901 32.3495 30.3445 33.5688 33.4219 34.1505C34.9583 34.441 36.0814 34.5734 37.0341 34.6716C37.1966 34.6884 37.3552 34.7042 37.5109 34.7197C38.2624 34.7948 38.9454 34.863 39.669 34.9942C39.9755 35.0498 40.1802 35.3501 40.1261 35.665Z" fill="#8AE4FF"/>
<path fill-rule="evenodd" clip-rule="evenodd" d="M21.0888 16.464C21.4527 16.3778 21.8158 16.6109 21.8998 16.9848C21.9386 17.1576 21.9932 17.3835 22.0575 17.6495C22.0731 17.714 22.0892 17.7808 22.1059 17.8497C22.1901 18.1992 22.2849 18.5966 22.3736 18.9986C22.5452 19.7759 22.7141 20.6532 22.7141 21.2351C22.7141 21.6188 22.4113 21.9299 22.0378 21.9299C21.6644 21.9299 21.3616 21.6188 21.3616 21.2351C21.3616 20.8344 21.2317 20.1082 21.0546 19.3059C20.9689 18.918 20.8769 18.5316 20.793 18.1838C20.7772 18.1182 20.7616 18.0537 20.7464 17.9906C20.6818 17.7234 20.6235 17.4824 20.5819 17.2973C20.498 16.9234 20.7249 16.5503 21.0888 16.464ZM17.1234 17.2786C17.4896 17.2033 17.8459 17.4473 17.9192 17.8236L18.5169 20.8941C18.5901 21.2704 18.3526 21.6364 17.9864 21.7117C17.6202 21.7869 17.2639 21.5429 17.1906 21.1666L16.5929 18.0961C16.5197 17.7198 16.7572 17.3538 17.1234 17.2786ZM14.5505 15.6328C14.9211 15.6804 15.184 16.0276 15.1377 16.4084C15.0018 17.5254 14.7444 19.8162 14.7444 20.4163C14.7444 20.8 14.4417 21.111 14.0682 21.111C13.6947 21.111 13.3919 20.8 13.3919 20.4163C13.3919 19.7062 13.6659 17.3026 13.7956 16.236C13.842 15.8553 14.1799 15.5852 14.5505 15.6328Z" fill="#8AE4FF"/>
</g>
</svg>
