<svg width="24" height="24" viewBox="0 0 24 24" fill="none" xmlns="http://www.w3.org/2000/svg">
<g id="mdi:map-marker">
<path id="Vector" d="M12 11.4961C11.337 11.4961 10.7011 11.2327 10.2322 10.7639C9.76339 10.295 9.5 9.65913 9.5 8.99609C9.5 8.33305 9.76339 7.69717 10.2322 7.22833C10.7011 6.75949 11.337 6.49609 12 6.49609C12.663 6.49609 13.2989 6.75949 13.7678 7.22833C14.2366 7.69717 14.5 8.33305 14.5 8.99609C14.5 9.3244 14.4353 9.64949 14.3097 9.9528C14.1841 10.2561 13.9999 10.5317 13.7678 10.7639C13.5356 10.996 13.26 11.1802 12.9567 11.3058C12.6534 11.4314 12.3283 11.4961 12 11.4961ZM12 1.99609C10.1435 1.99609 8.36301 2.73359 7.05025 4.04635C5.7375 5.3591 5 7.13958 5 8.99609C5 14.2461 12 21.9961 12 21.9961C12 21.9961 19 14.2461 19 8.99609C19 7.13958 18.2625 5.3591 16.9497 4.04635C15.637 2.73359 13.8565 1.99609 12 1.99609Z" fill="#AAAAAA"/>
</g>
</svg>
