<svg width="34" height="34" viewBox="0 0 34 34" fill="none" xmlns="http://www.w3.org/2000/svg">
<path d="M26.0312 0H7.96875C3.56773 0 0 3.56773 0 7.96875V26.0312C0 30.4323 3.56773 34 7.96875 34H26.0312C30.4323 34 34 30.4323 34 26.0312V7.96875C34 3.56773 30.4323 0 26.0312 0Z" fill="#111111"/>
<mask id="mask0_386_209" style="mask-type:luminance" maskUnits="userSpaceOnUse" x="3" y="6" width="28" height="22">
<path d="M3.71875 6.77344H30.2812V27.3501H3.71875V6.77344Z" fill="white"/>
</mask>
<g mask="url(#mask0_386_209)">
<path d="M26.205 8.60564C24.4829 7.81512 22.6655 7.2514 20.7983 6.92862C20.7814 6.92548 20.7639 6.92777 20.7483 6.93516C20.7327 6.94255 20.7198 6.95467 20.7115 6.96979C20.478 7.38496 20.2193 7.92683 20.0383 8.35263C17.9965 8.0469 15.9654 8.0469 13.9657 8.35263C13.7845 7.91727 13.5165 7.38496 13.282 6.96979C13.2733 6.95498 13.2603 6.94312 13.2448 6.93578C13.2293 6.92844 13.2119 6.92594 13.195 6.92862C11.3276 7.25075 9.51015 7.81449 7.7883 8.60564C7.77356 8.6119 7.76113 8.62257 7.75271 8.63619C4.30914 13.7808 3.36591 18.799 3.82863 23.755C3.82991 23.7672 3.83364 23.7789 3.83957 23.7896C3.8455 23.8003 3.85352 23.8097 3.86316 23.8172C6.13505 25.4857 8.33588 26.4987 10.4958 27.17C10.5126 27.1751 10.5305 27.1748 10.5472 27.1694C10.5639 27.1639 10.5785 27.1535 10.589 27.1395C11.1 26.4417 11.5554 25.706 11.946 24.9324C11.9514 24.9218 11.9544 24.9102 11.955 24.8983C11.9556 24.8865 11.9536 24.8746 11.9492 24.8636C11.9449 24.8525 11.9382 24.8425 11.9297 24.8342C11.9212 24.8259 11.9111 24.8195 11.8999 24.8154C11.1774 24.5413 10.4896 24.2073 9.8279 23.8278C9.81585 23.8207 9.80573 23.8108 9.79843 23.7988C9.79114 23.7869 9.78689 23.7733 9.78606 23.7594C9.78523 23.7454 9.78785 23.7315 9.79369 23.7188C9.79953 23.706 9.8084 23.695 9.81953 23.6865C9.95912 23.5821 10.0963 23.4746 10.231 23.364C10.2428 23.3543 10.2571 23.348 10.2722 23.346C10.2874 23.3439 10.3028 23.3461 10.3168 23.3523C14.664 25.3371 19.3702 25.3371 23.666 23.3523C23.68 23.3457 23.6957 23.3432 23.7111 23.345C23.7265 23.3469 23.741 23.3531 23.753 23.363C23.8878 23.4742 24.0254 23.5821 24.1655 23.6865C24.1767 23.6949 24.1857 23.7059 24.1916 23.7186C24.1975 23.7312 24.2002 23.7451 24.1995 23.7591C24.1988 23.7731 24.1946 23.7866 24.1875 23.7986C24.1803 23.8106 24.1702 23.8206 24.1582 23.8278C23.4962 24.2144 22.8027 24.5444 22.0852 24.8143C22.074 24.8186 22.0639 24.8252 22.0555 24.8336C22.047 24.842 22.0405 24.8522 22.0362 24.8633C22.032 24.8745 22.0301 24.8864 22.0308 24.8983C22.0315 24.9102 22.0347 24.9218 22.0401 24.9324C22.4375 25.6999 22.8906 26.4372 23.3959 27.1384C23.4062 27.1528 23.4207 27.1636 23.4374 27.1692C23.4541 27.1749 23.4722 27.1752 23.4891 27.17C25.6595 26.4987 27.8604 25.4857 30.1324 23.8172C30.1421 23.81 30.1503 23.8009 30.1562 23.7903C30.1622 23.7798 30.1658 23.7681 30.1669 23.7561C30.7208 18.0264 29.2392 13.0493 26.2395 8.63725C26.2322 8.62291 26.2199 8.6117 26.205 8.60564ZM12.5952 20.7374C11.2863 20.7374 10.2079 19.5358 10.2079 18.0602C10.2079 16.5845 11.2655 15.3829 12.5952 15.3829C13.9353 15.3829 15.0032 16.5951 14.9822 18.0602C14.9822 19.5358 13.9249 20.7374 12.5952 20.7374ZM21.4214 20.7374C20.1125 20.7374 19.0342 19.5358 19.0342 18.0602C19.0342 16.5845 20.0916 15.3829 21.4214 15.3829C22.7614 15.3829 23.8294 16.5951 23.8085 18.0602C23.8085 19.5358 22.7614 20.7374 21.4214 20.7374Z" fill="white"/>
</g>
</svg>
