<svg width="31" height="30" viewBox="0 0 31 30" fill="none" xmlns="http://www.w3.org/2000/svg">
  <g>
    <path
      d="M15.2408 2.5C13.5993 2.5 11.9739 2.82332 10.4573 3.45151C8.94073 4.07969 7.56274 5.00043 6.40201 6.16117C4.05781 8.50537 2.74084 11.6848 2.74084 15C2.74084 20.525 6.32834 25.2125 11.2908 26.875C11.9158 26.975 12.1158 26.5875 12.1158 26.25V24.1375C8.65334 24.8875 7.91584 22.4625 7.91584 22.4625C7.34084 21.0125 6.52834 20.625 6.52834 20.625C5.39084 19.85 6.61584 19.875 6.61584 19.875C7.86584 19.9625 8.52834 21.1625 8.52834 21.1625C9.61584 23.0625 11.4533 22.5 12.1658 22.2C12.2783 21.3875 12.6033 20.8375 12.9533 20.525C10.1783 20.2125 7.26584 19.1375 7.26584 14.375C7.26584 12.9875 7.74084 11.875 8.55334 10.9875C8.42834 10.675 7.99084 9.375 8.67834 7.6875C8.67834 7.6875 9.72834 7.35 12.1158 8.9625C13.1033 8.6875 14.1783 8.55 15.2408 8.55C16.3033 8.55 17.3783 8.6875 18.3658 8.9625C20.7533 7.35 21.8033 7.6875 21.8033 7.6875C22.4908 9.375 22.0533 10.675 21.9283 10.9875C22.7408 11.875 23.2158 12.9875 23.2158 14.375C23.2158 19.15 20.2908 20.2 17.5033 20.5125C17.9533 20.9 18.3658 21.6625 18.3658 22.825V26.25C18.3658 26.5875 18.5658 26.9875 19.2033 26.875C24.1658 25.2 27.7408 20.525 27.7408 15C27.7408 13.3585 27.4175 11.733 26.7893 10.2165C26.1612 8.69989 25.2404 7.3219 24.0797 6.16117C22.9189 5.00043 21.541 4.07969 20.0244 3.45151C18.5078 2.82332 16.8824 2.5 15.2408 2.5Z"
      fill="#303030" />
  </g>
</svg>
