<svg width="28" height="28" viewBox="0 0 28 28" fill="none" xmlns="http://www.w3.org/2000/svg">
<path d="M15.7408 2.5C14.0993 2.5 12.4738 2.82332 10.9573 3.45151C9.44069 4.07969 8.0627 5.00043 6.90196 6.16117C4.55776 8.50537 3.2408 11.6848 3.2408 15C3.2408 20.525 6.8283 25.2125 11.7908 26.875C12.4158 26.975 12.6158 26.5875 12.6158 26.25V24.1375C9.1533 24.8875 8.4158 22.4625 8.4158 22.4625C7.8408 21.0125 7.0283 20.625 7.0283 20.625C5.8908 19.85 7.1158 19.875 7.1158 19.875C8.3658 19.9625 9.0283 21.1625 9.0283 21.1625C10.1158 23.0625 11.9533 22.5 12.6658 22.2C12.7783 21.3875 13.1033 20.8375 13.4533 20.525C10.6783 20.2125 7.7658 19.1375 7.7658 14.375C7.7658 12.9875 8.2408 11.875 9.0533 10.9875C8.9283 10.675 8.4908 9.375 9.1783 7.6875C9.1783 7.6875 10.2283 7.35 12.6158 8.9625C13.6033 8.6875 14.6783 8.55 15.7408 8.55C16.8033 8.55 17.8783 8.6875 18.8658 8.9625C21.2533 7.35 22.3033 7.6875 22.3033 7.6875C22.9908 9.375 22.5533 10.675 22.4283 10.9875C23.2408 11.875 23.7158 12.9875 23.7158 14.375C23.7158 19.15 20.7908 20.2 18.0033 20.5125C18.4533 20.9 18.8658 21.6625 18.8658 22.825V26.25C18.8658 26.5875 19.0658 26.9875 19.7033 26.875C24.6658 25.2 28.2408 20.525 28.2408 15C28.2408 13.3585 27.9175 11.733 27.2893 10.2165C26.6611 8.69989 25.7404 7.3219 24.5796 6.16117C23.4189 5.00043 22.0409 4.07969 20.5243 3.45151C19.0078 2.82332 17.3823 2.5 15.7408 2.5Z" fill="#111111"/>
</svg>
