<svg width="198" height="205" viewBox="0 0 198 205" fill="none" xmlns="http://www.w3.org/2000/svg">
<g filter="url(#filter0_d_1185_1730)">
<rect x="0.626343" width="196.626" height="196.626" rx="32" fill="white"/>
</g>
<path d="M98.8737 50.75C94.4415 50.75 90.0528 51.623 85.9581 53.3191C81.8634 55.0152 78.1428 57.5012 75.0088 60.6351C68.6795 66.9645 65.1237 75.5489 65.1237 84.5C65.1237 99.4175 74.8099 112.074 88.2087 116.562C89.8962 116.832 90.4362 115.786 90.4362 114.875V109.171C81.0874 111.196 79.0962 104.649 79.0962 104.649C77.5437 100.734 75.3499 99.6875 75.3499 99.6875C72.2787 97.595 75.5862 97.6625 75.5862 97.6625C78.9612 97.8987 80.7499 101.139 80.7499 101.139C83.6862 106.269 88.6474 104.75 90.5712 103.94C90.8749 101.746 91.7524 100.261 92.6974 99.4175C85.2049 98.5738 77.3412 95.6712 77.3412 82.8125C77.3412 79.0662 78.6237 76.0625 80.8174 73.6662C80.4799 72.8225 79.2987 69.3125 81.1549 64.7563C81.1549 64.7563 83.9899 63.845 90.4362 68.1988C93.1024 67.4563 96.0049 67.085 98.8737 67.085C101.742 67.085 104.645 67.4563 107.311 68.1988C113.757 63.845 116.592 64.7563 116.592 64.7563C118.449 69.3125 117.267 72.8225 116.93 73.6662C119.124 76.0625 120.406 79.0662 120.406 82.8125C120.406 95.705 112.509 98.54 104.982 99.3837C106.197 100.43 107.311 102.489 107.311 105.628V114.875C107.311 115.786 107.851 116.866 109.572 116.562C122.971 112.04 132.624 99.4175 132.624 84.5C132.624 80.0679 131.751 75.6792 130.055 71.5844C128.358 67.4897 125.872 63.7691 122.739 60.6351C119.605 57.5012 115.884 55.0152 111.789 53.3191C107.694 51.623 103.306 50.75 98.8737 50.75Z" fill="#303030"/>
<path d="M73.0537 154.26C72.0803 154.26 71.1737 154.07 70.3337 153.69C69.5003 153.31 68.7737 152.787 68.1537 152.12C67.5337 151.447 67.047 150.673 66.6937 149.8C66.347 148.92 66.1737 147.98 66.1737 146.98C66.1737 145.927 66.3603 144.96 66.7337 144.08C67.1137 143.2 67.6303 142.437 68.2837 141.79C68.937 141.143 69.677 140.643 70.5037 140.29C71.337 139.937 72.2037 139.76 73.1037 139.76C74.1103 139.76 75.087 139.997 76.0337 140.47C76.987 140.937 77.827 141.66 78.5537 142.64L76.3737 143.81C75.927 143.263 75.4137 142.857 74.8337 142.59C74.2603 142.317 73.6737 142.18 73.0737 142.18C72.487 142.18 71.9237 142.3 71.3837 142.54C70.8503 142.78 70.3737 143.12 69.9537 143.56C69.5403 143.993 69.2137 144.507 68.9737 145.1C68.7337 145.687 68.6137 146.33 68.6137 147.03C68.6137 147.69 68.7303 148.313 68.9637 148.9C69.197 149.48 69.517 149.99 69.9237 150.43C70.337 150.863 70.8137 151.203 71.3537 151.45C71.8937 151.697 72.4737 151.82 73.0937 151.82C73.507 151.82 73.9103 151.757 74.3037 151.63C74.7037 151.497 75.077 151.307 75.4237 151.06C75.777 150.813 76.0903 150.513 76.3637 150.16C76.6437 149.807 76.877 149.407 77.0637 148.96H74.5137V146.83H79.9337C79.9603 147.85 79.8003 148.807 79.4537 149.7C79.107 150.593 78.617 151.383 77.9837 152.07C77.3503 152.757 76.6137 153.293 75.7737 153.68C74.9337 154.067 74.027 154.26 73.0537 154.26ZM82.5885 144H85.0285V154H82.5885V144ZM83.8285 142.71C83.4685 142.71 83.1652 142.593 82.9185 142.36C82.6718 142.12 82.5485 141.82 82.5485 141.46C82.5485 141.107 82.6718 140.81 82.9185 140.57C83.1652 140.33 83.4652 140.21 83.8185 140.21C84.1718 140.21 84.4685 140.33 84.7085 140.57C84.9552 140.81 85.0785 141.107 85.0785 141.46C85.0785 141.82 84.9585 142.12 84.7185 142.36C84.4785 142.593 84.1818 142.71 83.8285 142.71ZM93.5923 146.44H91.6523V154H89.2123V146.44H87.7323V144H89.2123V140.86H91.6523V144H93.5923V146.44ZM104.44 140H106.88V154H104.44V147.72H98.6402V154H96.2002V140H98.6402V145.28H104.44V140ZM109.686 150.3V144H112.126V149.66C112.126 150.053 112.223 150.413 112.416 150.74C112.609 151.06 112.866 151.317 113.186 151.51C113.513 151.697 113.869 151.79 114.256 151.79C114.656 151.79 115.016 151.697 115.336 151.51C115.656 151.317 115.913 151.06 116.106 150.74C116.299 150.413 116.396 150.053 116.396 149.66V144H118.836L118.846 154H116.406L116.396 153.09C116.049 153.45 115.639 153.737 115.166 153.95C114.693 154.157 114.186 154.26 113.646 154.26C112.919 154.26 112.256 154.083 111.656 153.73C111.056 153.37 110.576 152.893 110.216 152.3C109.863 151.7 109.686 151.033 109.686 150.3ZM127.026 143.72C128 143.72 128.886 143.957 129.686 144.43C130.486 144.903 131.123 145.54 131.596 146.34C132.07 147.133 132.306 148.013 132.306 148.98C132.306 149.707 132.17 150.39 131.896 151.03C131.623 151.67 131.243 152.233 130.756 152.72C130.276 153.2 129.716 153.577 129.076 153.85C128.443 154.123 127.76 154.26 127.026 154.26C126.4 154.26 125.843 154.12 125.356 153.84C124.876 153.553 124.473 153.183 124.146 152.73V154H121.706V139H124.146V145.25C124.473 144.797 124.876 144.43 125.356 144.15C125.843 143.863 126.4 143.72 127.026 143.72ZM126.996 151.9C127.516 151.9 127.986 151.77 128.406 151.51C128.833 151.243 129.173 150.89 129.426 150.45C129.68 150.01 129.806 149.52 129.806 148.98C129.806 148.447 129.68 147.96 129.426 147.52C129.173 147.073 128.833 146.72 128.406 146.46C127.98 146.2 127.51 146.07 126.996 146.07C126.49 146.07 126.036 146.203 125.636 146.47C125.236 146.73 124.923 147.083 124.696 147.53C124.47 147.97 124.356 148.453 124.356 148.98C124.356 149.52 124.47 150.013 124.696 150.46C124.923 150.9 125.236 151.25 125.636 151.51C126.036 151.77 126.49 151.9 126.996 151.9Z" fill="black"/>
<defs>
<filter id="filter0_d_1185_1730" x="0.626343" y="0" width="196.626" height="204.626" filterUnits="userSpaceOnUse" color-interpolation-filters="sRGB">
<feFlood flood-opacity="0" result="BackgroundImageFix"/>
<feColorMatrix in="SourceAlpha" type="matrix" values="0 0 0 0 0 0 0 0 0 0 0 0 0 0 0 0 0 0 127 0" result="hardAlpha"/>
<feOffset dy="8"/>
<feComposite in2="hardAlpha" operator="out"/>
<feColorMatrix type="matrix" values="0 0 0 0 0 0 0 0 0 0 0 0 0 0 0 0 0 0 0.15 0"/>
<feBlend mode="normal" in2="BackgroundImageFix" result="effect1_dropShadow_1185_1730"/>
<feBlend mode="normal" in="SourceGraphic" in2="effect1_dropShadow_1185_1730" result="shape"/>
</filter>
</defs>
</svg>
