<svg width="32" height="36" viewBox="0 0 32 36" fill="none" xmlns="http://www.w3.org/2000/svg">
<g clip-path="url(#clip0_30_745)">
<path d="M28.7577 19.2303C28.4348 18.9625 28.0645 18.7682 27.6696 18.6593C27.2746 18.5504 26.8632 18.5291 26.4604 18.5967C28.7787 16.0786 29.9514 13.5751 29.9514 11.1207C29.9514 7.60518 27.3233 4.74573 24.0927 4.74573C23.2355 4.73994 22.3875 4.93608 21.6083 5.32039C20.829 5.7047 20.1374 6.26786 19.582 6.97034C19.0266 6.26786 18.3349 5.7047 17.5557 5.32039C16.7765 4.93608 15.9285 4.73994 15.0713 4.74573C11.8407 4.74573 9.21255 7.60518 9.21255 11.1207C9.21255 12.5817 9.61251 14.0014 10.4544 15.5035C9.76489 15.6915 9.13563 16.077 8.63359 16.6192L5.84125 19.6207H2.29959C1.77576 19.6207 1.27337 19.8446 0.902965 20.2431C0.532556 20.6416 0.324463 21.1821 0.324463 21.7457L0.324463 27.0582C0.324463 27.6218 0.532556 28.1623 0.902965 28.5608C1.27337 28.9593 1.77576 29.1832 2.29959 29.1832H15.1379C15.2187 29.1833 15.2991 29.1726 15.3774 29.1514L23.2779 27.0264C23.3283 27.0135 23.3775 26.9957 23.4248 26.9732L28.2232 24.7765L28.2775 24.7499C28.7386 24.502 29.1335 24.1319 29.425 23.6744C29.7164 23.2169 29.8948 22.6871 29.9434 22.1349C29.9919 21.5827 29.909 21.0263 29.7024 20.5182C29.4958 20.01 29.1724 19.5668 28.7626 19.2303H28.7577ZM27.4121 22.8361L22.7212 24.985L15.0145 27.0582H7.23742V21.1228L10.031 18.1186C10.2137 17.9204 10.4313 17.7633 10.671 17.6564C10.9106 17.5494 11.1677 17.4948 11.4272 17.4957H17.6069C17.9997 17.4957 18.3765 17.6636 18.6543 17.9625C18.9321 18.2614 19.0882 18.6668 19.0882 19.0895C19.0882 19.5122 18.9321 19.9175 18.6543 20.2164C18.3765 20.5153 17.9997 20.6832 17.6069 20.6832H14.1504C13.8885 20.6832 13.6373 20.7952 13.4521 20.9944C13.2669 21.1937 13.1628 21.4639 13.1628 21.7457C13.1628 22.0275 13.2669 22.2978 13.4521 22.497C13.6373 22.6963 13.8885 22.8082 14.1504 22.8082H18.1006C18.175 22.808 18.2491 22.7991 18.3216 22.7817L26.5925 20.735L26.6307 20.7244C26.8832 20.649 27.1527 20.6767 27.3873 20.8022C27.622 20.9277 27.8052 21.1421 27.9017 21.4042C27.9982 21.6663 28.0012 21.9576 27.9102 22.2219C27.8191 22.4862 27.6404 22.705 27.4084 22.8361H27.4121Z" fill="#3DAAFC"/>
</g>
<defs>
<clipPath id="clip0_30_745">
<rect width="31.6021" height="34" fill="white" transform="translate(0.324463 0.495605)"/>
</clipPath>
</defs>
</svg>
