<svg width="31" height="30" viewBox="0 0 31 30" fill="none" xmlns="http://www.w3.org/2000/svg">
  <g>
    <path
      d="M9.99084 2.5H20.4908C24.4908 2.5 27.7408 5.75 27.7408 9.75V20.25C27.7408 22.1728 26.977 24.0169 25.6174 25.3765C24.2577 26.7362 22.4137 27.5 20.4908 27.5H9.99084C5.99084 27.5 2.74084 24.25 2.74084 20.25V9.75C2.74084 7.82718 3.50468 5.98311 4.86432 4.62348C6.22396 3.26384 8.06803 2.5 9.99084 2.5ZM9.74084 5C8.54737 5 7.40278 5.47411 6.55886 6.31802C5.71495 7.16193 5.24084 8.30653 5.24084 9.5V20.5C5.24084 22.9875 7.25334 25 9.74084 25H20.7408C21.9343 25 23.0789 24.5259 23.9228 23.682C24.7667 22.8381 25.2408 21.6935 25.2408 20.5V9.5C25.2408 7.0125 23.2283 5 20.7408 5H9.74084ZM21.8033 6.875C22.2177 6.875 22.6152 7.03962 22.9082 7.33265C23.2012 7.62567 23.3658 8.0231 23.3658 8.4375C23.3658 8.8519 23.2012 9.24933 22.9082 9.54235C22.6152 9.83538 22.2177 10 21.8033 10C21.3889 10 20.9915 9.83538 20.6985 9.54235C20.4055 9.24933 20.2408 8.8519 20.2408 8.4375C20.2408 8.0231 20.4055 7.62567 20.6985 7.33265C20.9915 7.03962 21.3889 6.875 21.8033 6.875ZM15.2408 8.75C16.8984 8.75 18.4882 9.40848 19.6603 10.5806C20.8324 11.7527 21.4908 13.3424 21.4908 15C21.4908 16.6576 20.8324 18.2473 19.6603 19.4194C18.4882 20.5915 16.8984 21.25 15.2408 21.25C13.5832 21.25 11.9935 20.5915 10.8214 19.4194C9.64932 18.2473 8.99084 16.6576 8.99084 15C8.99084 13.3424 9.64932 11.7527 10.8214 10.5806C11.9935 9.40848 13.5832 8.75 15.2408 8.75ZM15.2408 11.25C14.2463 11.25 13.2925 11.6451 12.5892 12.3483C11.8859 13.0516 11.4908 14.0054 11.4908 15C11.4908 15.9946 11.8859 16.9484 12.5892 17.6517C13.2925 18.3549 14.2463 18.75 15.2408 18.75C16.2354 18.75 17.1892 18.3549 17.8925 17.6517C18.5958 16.9484 18.9908 15.9946 18.9908 15C18.9908 14.0054 18.5958 13.0516 17.8925 12.3483C17.1892 11.6451 16.2354 11.25 15.2408 11.25Z"
      fill="#303030" />
  </g>
</svg>
