<svg width="16" height="16" viewBox="0 0 16 16" fill="none" xmlns="http://www.w3.org/2000/svg">
<path d="M4.63851 0.5H10.9385C13.3385 0.5 15.2885 2.45 15.2885 4.85V11.15C15.2885 12.3037 14.8302 13.4101 14.0144 14.2259C13.1986 15.0417 12.0922 15.5 10.9385 15.5H4.63851C2.23851 15.5 0.288513 13.55 0.288513 11.15V4.85C0.288513 3.69631 0.746816 2.58987 1.5626 1.77409C2.37838 0.958302 3.48482 0.5 4.63851 0.5ZM4.48851 2C3.77243 2 3.08567 2.28446 2.57932 2.79081C2.07298 3.29716 1.78851 3.98392 1.78851 4.7V11.3C1.78851 12.7925 2.99601 14 4.48851 14H11.0885C11.8046 14 12.4914 13.7155 12.9977 13.2092C13.5041 12.7028 13.7885 12.0161 13.7885 11.3V4.7C13.7885 3.2075 12.581 2 11.0885 2H4.48851ZM11.726 3.125C11.9747 3.125 12.2131 3.22377 12.3889 3.39959C12.5647 3.5754 12.6635 3.81386 12.6635 4.0625C12.6635 4.31114 12.5647 4.5496 12.3889 4.72541C12.2131 4.90123 11.9747 5 11.726 5C11.4774 5 11.2389 4.90123 11.0631 4.72541C10.8873 4.5496 10.7885 4.31114 10.7885 4.0625C10.7885 3.81386 10.8873 3.5754 11.0631 3.39959C11.2389 3.22377 11.4774 3.125 11.726 3.125ZM7.78851 4.25C8.78308 4.25 9.7369 4.64509 10.4402 5.34835C11.1434 6.05161 11.5385 7.00544 11.5385 8C11.5385 8.99456 11.1434 9.94839 10.4402 10.6517C9.7369 11.3549 8.78308 11.75 7.78851 11.75C6.79395 11.75 5.84012 11.3549 5.13686 10.6517C4.4336 9.94839 4.03851 8.99456 4.03851 8C4.03851 7.00544 4.4336 6.05161 5.13686 5.34835C5.84012 4.64509 6.79395 4.25 7.78851 4.25ZM7.78851 5.75C7.19178 5.75 6.61948 5.98705 6.19752 6.40901C5.77557 6.83097 5.53851 7.40326 5.53851 8C5.53851 8.59674 5.77557 9.16903 6.19752 9.59099C6.61948 10.0129 7.19178 10.25 7.78851 10.25C8.38525 10.25 8.95755 10.0129 9.3795 9.59099C9.80146 9.16903 10.0385 8.59674 10.0385 8C10.0385 7.40326 9.80146 6.83097 9.3795 6.40901C8.95755 5.98705 8.38525 5.75 7.78851 5.75Z" fill="#303030"/>
</svg>
