<svg width="197" height="205" viewBox="0 0 197 205" fill="none" xmlns="http://www.w3.org/2000/svg">
<g filter="url(#filter0_d_1185_1735)">
<rect x="0.252686" width="196.626" height="196.626" rx="32" fill="white"/>
</g>
<path d="M88.5735 154.42L87.0135 152.88C86.4669 153.293 85.8569 153.617 85.1835 153.85C84.5169 154.083 83.8135 154.2 83.0735 154.2C82.1269 154.2 81.2369 154.013 80.4035 153.64C79.5702 153.26 78.8369 152.74 78.2035 152.08C77.5702 151.413 77.0735 150.64 76.7135 149.76C76.3535 148.88 76.1735 147.94 76.1735 146.94C76.1735 145.94 76.3535 145.003 76.7135 144.13C77.0735 143.25 77.5702 142.477 78.2035 141.81C78.8369 141.143 79.5702 140.623 80.4035 140.25C81.2369 139.87 82.1269 139.68 83.0735 139.68C84.0269 139.68 84.9202 139.87 85.7535 140.25C86.5869 140.623 87.3202 141.143 87.9535 141.81C88.5869 142.477 89.0802 143.25 89.4335 144.13C89.7935 145.003 89.9735 145.94 89.9735 146.94C89.9735 147.72 89.8602 148.463 89.6335 149.17C89.4069 149.87 89.0969 150.517 88.7035 151.11L90.2935 152.7L88.5735 154.42ZM83.0735 151.76C83.4602 151.76 83.8402 151.703 84.2135 151.59C84.5869 151.47 84.9302 151.303 85.2435 151.09L83.9735 149.82L85.6935 148.09L86.8835 149.29C87.0969 148.943 87.2569 148.57 87.3635 148.17C87.4769 147.77 87.5335 147.36 87.5335 146.94C87.5335 146.273 87.4169 145.65 87.1835 145.07C86.9502 144.49 86.6269 143.98 86.2135 143.54C85.8069 143.093 85.3335 142.747 84.7935 142.5C84.2602 142.247 83.6869 142.12 83.0735 142.12C82.4602 142.12 81.8835 142.247 81.3435 142.5C80.8035 142.753 80.3269 143.103 79.9135 143.55C79.5069 143.99 79.1869 144.5 78.9535 145.08C78.7269 145.66 78.6135 146.28 78.6135 146.94C78.6135 147.6 78.7302 148.223 78.9635 148.81C79.1969 149.39 79.5169 149.903 79.9235 150.35C80.3369 150.79 80.8102 151.137 81.3435 151.39C81.8835 151.637 82.4602 151.76 83.0735 151.76ZM92.9399 144H95.3799V154H92.9399V144ZM94.1799 142.71C93.8199 142.71 93.5166 142.593 93.2699 142.36C93.0233 142.12 92.8999 141.82 92.8999 141.46C92.8999 141.107 93.0233 140.81 93.2699 140.57C93.5166 140.33 93.8166 140.21 94.1699 140.21C94.5233 140.21 94.8199 140.33 95.0599 140.57C95.3066 140.81 95.4299 141.107 95.4299 141.46C95.4299 141.82 95.3099 142.12 95.0699 142.36C94.8299 142.593 94.5333 142.71 94.1799 142.71ZM98.5837 144H101.024V154H98.5837V144ZM99.8237 142.71C99.4637 142.71 99.1604 142.593 98.9137 142.36C98.667 142.12 98.5437 141.82 98.5437 141.46C98.5437 141.107 98.667 140.81 98.9137 140.57C99.1604 140.33 99.4604 140.21 99.8137 140.21C100.167 140.21 100.464 140.33 100.704 140.57C100.95 140.81 101.074 141.107 101.074 141.46C101.074 141.82 100.954 142.12 100.714 142.36C100.474 142.593 100.177 142.71 99.8237 142.71ZM109.587 146.44H107.647V154H105.207V146.44H103.727V144H105.207V140.86H107.647V144H109.587V146.44ZM119.501 144H121.941V154H119.501L119.391 152.76C119.118 153.207 118.754 153.57 118.301 153.85C117.854 154.123 117.324 154.26 116.711 154.26C115.971 154.26 115.278 154.12 114.631 153.84C113.984 153.56 113.414 153.173 112.921 152.68C112.434 152.187 112.051 151.617 111.771 150.97C111.498 150.323 111.361 149.63 111.361 148.89C111.361 148.177 111.491 147.507 111.751 146.88C112.018 146.253 112.388 145.703 112.861 145.23C113.334 144.757 113.881 144.387 114.501 144.12C115.121 143.853 115.788 143.72 116.501 143.72C117.161 143.72 117.751 143.867 118.271 144.16C118.798 144.453 119.244 144.827 119.611 145.28L119.501 144ZM116.651 151.91C117.171 151.91 117.631 151.78 118.031 151.52C118.431 151.26 118.744 150.91 118.971 150.47C119.198 150.023 119.311 149.533 119.311 149C119.311 148.46 119.198 147.97 118.971 147.53C118.744 147.083 118.428 146.73 118.021 146.47C117.621 146.21 117.164 146.08 116.651 146.08C116.138 146.08 115.668 146.213 115.241 146.48C114.821 146.74 114.484 147.09 114.231 147.53C113.984 147.97 113.861 148.46 113.861 149C113.861 149.54 113.988 150.03 114.241 150.47C114.494 150.91 114.831 151.26 115.251 151.52C115.678 151.78 116.144 151.91 116.651 151.91Z" fill="black"/>
<path d="M124.012 108.745C124.063 108.761 124.108 108.79 124.144 108.828C124.18 108.867 124.205 108.914 124.217 108.965C124.23 109.016 124.229 109.07 124.214 109.121C124.2 109.171 124.173 109.217 124.136 109.255C119.582 113.783 114.234 116.886 108.093 118.564C89.4056 123.673 69.56 112.723 64.3552 94.0404C59.44 76.3897 68.1772 57.9464 85.3035 51.0582C109.467 41.3434 135.45 59.8359 134.416 85.6897C134.206 90.9332 132.871 95.9186 130.409 100.646C130.373 100.715 130.312 100.768 130.239 100.795C130.166 100.821 130.086 100.818 130.015 100.787C128.44 100.109 126.823 99.9403 125.164 100.28C122.975 100.732 122.14 99.377 121.007 97.8347C120.311 96.8864 120.169 95.8469 120.582 94.7163C123.815 85.8802 120.603 75.7537 114.545 68.9393C114.499 68.8874 114.472 68.8214 114.468 68.7518C114.353 66.6217 114.261 64.4966 114.191 62.3767C114.12 60.1953 113.135 59.5317 111.222 60.7115C109.793 61.5922 108.36 62.4617 106.923 63.3199C106.883 63.3438 106.838 63.3582 106.791 63.3619C106.745 63.3657 106.698 63.3586 106.655 63.3414C98.6396 60.306 91.2966 61.371 84.6259 66.5367C84.5885 66.5655 84.5452 66.5854 84.4993 66.595C84.4534 66.6046 84.4061 66.6036 84.3611 66.592C82.7432 66.1762 81.1181 65.7809 79.4859 65.4061C77.946 65.0527 76.9266 65.8177 77.3516 67.4062C77.8731 69.3561 78.3597 71.3142 78.8114 73.2805C78.8292 73.3536 78.8194 73.4312 78.7837 73.4986C75.2318 79.9813 74.3089 86.7507 76.015 93.8069C78.7529 105.125 89.267 109.642 100.071 108.643C103.754 108.302 107.708 107.636 111.001 106.102C112.596 105.361 114.173 104.266 115.731 102.818C115.764 102.788 115.803 102.765 115.845 102.752C115.887 102.738 115.932 102.734 115.976 102.739C116.021 102.744 116.063 102.759 116.101 102.782C116.139 102.805 116.171 102.836 116.196 102.873C118.114 105.737 120.719 107.694 124.012 108.745Z" fill="#303030"/>
<path d="M112.017 73.8274L115.42 72.663C115.462 72.6486 115.506 72.6434 115.551 72.6478C115.595 72.6522 115.638 72.6661 115.676 72.6886C115.714 72.7111 115.747 72.7416 115.773 72.778C115.798 72.8144 115.815 72.8559 115.823 72.8996L115.863 73.1208C115.876 73.1941 115.862 73.2694 115.823 73.3332C115.785 73.3969 115.725 73.4447 115.654 73.468L112.482 74.4757C112.442 74.4883 112.405 74.5089 112.374 74.5362C112.342 74.5636 112.317 74.597 112.299 74.6347C112.281 74.6723 112.27 74.7133 112.268 74.7551C112.267 74.797 112.273 74.8388 112.288 74.8782L112.543 75.5479C112.567 75.6116 112.612 75.6654 112.671 75.7006C112.729 75.7357 112.798 75.7501 112.867 75.7415L115.771 75.3912C115.833 75.3839 115.895 75.395 115.95 75.4229C116.005 75.4508 116.05 75.4944 116.079 75.5479C116.251 75.8644 115.993 76.0334 115.7 76.0733C114.856 76.188 114.013 76.2935 113.172 76.3898C113.128 76.395 113.086 76.4095 113.048 76.4322C113.01 76.4549 112.978 76.4854 112.953 76.5215C112.928 76.5576 112.911 76.5986 112.904 76.6416C112.896 76.6846 112.898 76.7286 112.91 76.7707L113.091 77.4712C113.106 77.5274 113.137 77.5784 113.179 77.618C113.222 77.6577 113.274 77.6846 113.332 77.6955L116.076 78.2086C116.146 78.2215 116.21 78.2587 116.256 78.3136C116.303 78.3686 116.328 78.438 116.328 78.5097V78.6572C116.328 78.703 116.318 78.7484 116.298 78.7898C116.279 78.8312 116.25 78.8677 116.214 78.8966C116.178 78.9255 116.137 78.946 116.092 78.9567C116.047 78.9673 116.001 78.9679 115.956 78.9582L113.655 78.4605C113.606 78.4505 113.555 78.4524 113.506 78.4662C113.458 78.48 113.413 78.5052 113.377 78.5397C113.341 78.5742 113.313 78.6168 113.297 78.6641C113.281 78.7113 113.277 78.7616 113.285 78.8108C113.979 83.1612 112.528 86.5244 108.931 88.9004C104.268 91.9819 93.5199 92.8698 88.4507 90.6762C84.8638 89.1257 82.9749 86.1977 82.784 81.8923C82.7818 81.8416 82.7671 81.7922 82.7411 81.7485C82.7151 81.7048 82.6787 81.6683 82.635 81.6421C82.5914 81.6159 82.5419 81.6009 82.4911 81.5985C82.4402 81.596 82.3895 81.6062 82.3436 81.6281L80.2371 82.6358C80.1935 82.6566 80.1457 82.6668 80.0974 82.6657C80.0491 82.6645 80.0018 82.6521 79.9593 82.6294C79.9167 82.6067 79.8801 82.5743 79.8524 82.5348C79.8247 82.4954 79.8066 82.45 79.7998 82.4023L79.7659 82.1719C79.7571 82.103 79.7711 82.0334 79.8057 81.9739C79.8402 81.9144 79.8934 81.8684 79.9568 81.8432L82.5592 80.8078C82.6143 80.7859 82.6619 80.7485 82.6963 80.7C82.7307 80.6515 82.7505 80.594 82.7532 80.5344L82.784 79.7909C82.7854 79.7472 82.7776 79.7037 82.7612 79.6632C82.7448 79.6228 82.7201 79.5863 82.6887 79.5561C82.6573 79.5259 82.6199 79.5028 82.579 79.4882C82.5381 79.4736 82.4946 79.4678 82.4514 79.4713L79.809 79.6895C79.777 79.6924 79.7448 79.689 79.7141 79.6795C79.6835 79.6699 79.655 79.6544 79.6304 79.6339C79.6058 79.6133 79.5855 79.5881 79.5707 79.5597C79.5559 79.5312 79.5468 79.5002 79.5441 79.4683L79.5318 79.3392C79.528 79.2986 79.5324 79.2576 79.5446 79.2187C79.5569 79.1798 79.5767 79.1437 79.6031 79.1125C79.6295 79.0813 79.6618 79.0557 79.6982 79.0371C79.7346 79.0186 79.7744 79.0074 79.8152 79.0043L82.6701 78.7678C82.7386 78.7625 82.8034 78.7346 82.8542 78.6884C82.905 78.6422 82.9388 78.5804 82.9503 78.5128L83.0365 77.9782C83.0435 77.9368 83.0421 77.8945 83.0322 77.8537C83.0224 77.813 83.0043 77.7748 82.9792 77.7414C82.9541 77.708 82.9225 77.6802 82.8863 77.6596C82.85 77.639 82.81 77.6261 82.7686 77.6218L79.5996 77.2807C79.53 77.2727 79.4652 77.2413 79.4159 77.1915C79.3666 77.1418 79.3358 77.0768 79.3286 77.0073L79.3039 76.7861C79.2987 76.739 79.3043 76.6914 79.3203 76.6469C79.3363 76.6023 79.3623 76.5621 79.3963 76.5294C79.4303 76.4967 79.4714 76.4723 79.5162 76.4582C79.5611 76.4441 79.6086 76.4407 79.655 76.4481L82.978 76.9489C83.0506 76.96 83.1248 76.9444 83.187 76.9049C83.2492 76.8654 83.2953 76.8046 83.3168 76.7339C87.2434 63.6579 105.1 61.1263 111.644 73.6799C111.678 73.7449 111.735 73.7954 111.803 73.8225C111.871 73.8495 111.947 73.8513 112.017 73.8274Z" fill="#303030"/>
<defs>
<filter id="filter0_d_1185_1735" x="0.252686" y="0" width="196.626" height="204.626" filterUnits="userSpaceOnUse" color-interpolation-filters="sRGB">
<feFlood flood-opacity="0" result="BackgroundImageFix"/>
<feColorMatrix in="SourceAlpha" type="matrix" values="0 0 0 0 0 0 0 0 0 0 0 0 0 0 0 0 0 0 127 0" result="hardAlpha"/>
<feOffset dy="8"/>
<feComposite in2="hardAlpha" operator="out"/>
<feColorMatrix type="matrix" values="0 0 0 0 0 0 0 0 0 0 0 0 0 0 0 0 0 0 0.15 0"/>
<feBlend mode="normal" in2="BackgroundImageFix" result="effect1_dropShadow_1185_1735"/>
<feBlend mode="normal" in="SourceGraphic" in2="effect1_dropShadow_1185_1735" result="shape"/>
</filter>
</defs>
</svg>
