<svg width="32" height="30" viewBox="0 0 32 30" fill="none" xmlns="http://www.w3.org/2000/svg">
  <g>
    <path
      d="M25.2695 24.0534C25.2883 24.0593 25.3052 24.0698 25.3186 24.0839C25.332 24.0981 25.3415 24.1153 25.3461 24.1341C25.3507 24.1528 25.3503 24.1724 25.345 24.1909C25.3396 24.2095 25.3295 24.2264 25.3155 24.24C23.6147 25.8968 21.6174 27.0321 19.3238 27.6458C12.3441 29.5151 4.93185 25.509 2.98792 18.6738C1.15211 12.2162 4.41538 5.46867 10.812 2.94859C19.8368 -0.605597 29.5415 6.15995 29.1551 15.6187C29.0768 17.537 28.578 19.3609 27.6586 21.0904C27.6452 21.1158 27.6225 21.1352 27.5951 21.1448C27.5678 21.1544 27.5378 21.1535 27.5113 21.1422C26.9232 20.8941 26.3193 20.8323 25.6997 20.9567C24.8819 21.1219 24.5701 20.6262 24.1469 20.062C23.8869 19.715 23.834 19.3347 23.9881 18.9211C25.1959 15.6884 23.9962 11.9836 21.7336 9.49045C21.7165 9.47148 21.7063 9.44733 21.7049 9.42188C21.6619 8.64256 21.6274 7.8651 21.6013 7.08952C21.5749 6.29146 21.2068 6.04867 20.4925 6.48029C19.9588 6.80252 19.4235 7.12062 18.8867 7.4346C18.8717 7.44334 18.8549 7.4486 18.8375 7.44996C18.8202 7.45133 18.8028 7.44876 18.7867 7.44247C15.7929 6.33192 13.0503 6.72159 10.5589 8.61146C10.5449 8.622 10.5287 8.6293 10.5116 8.6328C10.4945 8.63631 10.4768 8.63593 10.46 8.63169C9.8557 8.47957 9.24875 8.33495 8.63912 8.19781C8.06399 8.06855 7.68326 8.34843 7.84199 8.92956C8.03677 9.64294 8.21851 10.3593 8.38721 11.0787C8.39387 11.1055 8.39019 11.1338 8.37686 11.1585C7.05023 13.5302 6.70554 16.0068 7.34278 18.5884C8.36536 22.7293 12.2923 24.3816 16.3274 24.0163C17.7031 23.8915 19.1801 23.6476 20.4097 23.0867C21.0055 22.8155 21.5944 22.4149 22.1765 21.8851C22.1887 21.8741 22.2032 21.8658 22.219 21.8608C22.2348 21.8558 22.2516 21.8542 22.2681 21.8561C22.2846 21.8581 22.3005 21.8635 22.3146 21.872C22.3288 21.8805 22.3409 21.8919 22.3502 21.9054C23.0664 22.953 24.0395 23.669 25.2695 24.0534Z"
      fill="#303030" />
    <path
      d="M20.7893 11.2786L22.0603 10.8526C22.076 10.8473 22.0927 10.8454 22.1092 10.8471C22.1258 10.8487 22.1417 10.8538 22.156 10.862C22.1704 10.8702 22.1827 10.8814 22.1922 10.8947C22.2017 10.908 22.2081 10.9232 22.211 10.9392L22.2259 11.0201C22.2307 11.0469 22.2253 11.0745 22.211 11.0978C22.1966 11.1211 22.1742 11.1386 22.1477 11.1471L20.963 11.5158C20.9482 11.5204 20.9345 11.528 20.9227 11.538C20.911 11.548 20.9014 11.5602 20.8947 11.574C20.8879 11.5877 20.884 11.6027 20.8833 11.618C20.8826 11.6333 20.885 11.6487 20.8905 11.6631L20.986 11.9081C20.9948 11.9314 21.0116 11.9511 21.0335 11.9639C21.0554 11.9768 21.0813 11.9821 21.1068 11.9789L22.1914 11.8508C22.2145 11.8481 22.2378 11.8521 22.2583 11.8623C22.2788 11.8726 22.2956 11.8885 22.3065 11.9081C22.3709 12.0239 22.2743 12.0857 22.165 12.1003C21.8498 12.1423 21.535 12.1809 21.2206 12.2161C21.2043 12.218 21.1885 12.2233 21.1744 12.2316C21.1603 12.2399 21.1482 12.2511 21.139 12.2643C21.1297 12.2775 21.1235 12.2925 21.1207 12.3082C21.1179 12.3239 21.1186 12.3401 21.1229 12.3555L21.1907 12.6117C21.1962 12.6323 21.2075 12.6509 21.2234 12.6654C21.2393 12.68 21.2591 12.6898 21.2804 12.6938L22.3053 12.8815C22.3317 12.8862 22.3556 12.8998 22.3728 12.9199C22.3901 12.9401 22.3995 12.9654 22.3996 12.9917V13.0456C22.3997 13.0624 22.3959 13.079 22.3885 13.0941C22.3811 13.1093 22.3704 13.1226 22.357 13.1332C22.3437 13.1438 22.3281 13.1513 22.3113 13.1552C22.2946 13.1591 22.2773 13.1593 22.2605 13.1558L21.4012 12.9737C21.3828 12.97 21.3637 12.9707 21.3456 12.9758C21.3275 12.9808 21.311 12.99 21.2974 13.0026C21.2838 13.0152 21.2736 13.0309 21.2676 13.0481C21.2617 13.0654 21.2602 13.0838 21.2632 13.1018C21.5224 14.6934 20.9802 15.9239 19.6367 16.7931C17.8952 17.9205 13.8809 18.2454 11.9875 17.4428C10.6479 16.8756 9.94238 15.8044 9.87106 14.2292C9.87026 14.2106 9.86475 14.1926 9.85504 14.1766C9.84533 14.1606 9.83172 14.1472 9.81542 14.1377C9.79912 14.1281 9.78065 14.1226 9.76166 14.1217C9.74266 14.1208 9.72374 14.1245 9.70658 14.1325L8.9198 14.5012C8.90353 14.5088 8.88566 14.5125 8.86763 14.5121C8.84961 14.5117 8.83193 14.5072 8.81604 14.4989C8.80014 14.4906 8.78647 14.4787 8.77612 14.4643C8.76577 14.4498 8.75904 14.4332 8.75647 14.4158L8.74381 14.3315C8.74054 14.3063 8.74577 14.2808 8.75868 14.259C8.77158 14.2373 8.79144 14.2205 8.81513 14.2112L9.78709 13.8324C9.80767 13.8244 9.82546 13.8107 9.83831 13.793C9.85117 13.7753 9.85854 13.7542 9.85956 13.7324L9.87106 13.4604C9.87159 13.4444 9.86869 13.4285 9.86255 13.4137C9.85641 13.3989 9.84718 13.3855 9.83545 13.3745C9.82372 13.3635 9.80977 13.355 9.7945 13.3496C9.77922 13.3443 9.76298 13.3422 9.74683 13.3435L8.75992 13.4233C8.74797 13.4244 8.73593 13.4231 8.72448 13.4196C8.71303 13.4161 8.7024 13.4105 8.69321 13.403C8.68401 13.3954 8.67643 13.3862 8.6709 13.3758C8.66537 13.3654 8.66201 13.354 8.66099 13.3424L8.65639 13.2951C8.65497 13.2803 8.6566 13.2653 8.66117 13.2511C8.66574 13.2368 8.67317 13.2236 8.68302 13.2122C8.69287 13.2008 8.70495 13.1914 8.71855 13.1846C8.73214 13.1778 8.74699 13.1738 8.76222 13.1726L9.8285 13.0861C9.8541 13.0842 9.87831 13.074 9.89728 13.057C9.91625 13.0401 9.92889 13.0175 9.93318 12.9928L9.96538 12.7972C9.968 12.7821 9.96745 12.7666 9.96377 12.7517C9.96009 12.7368 9.95336 12.7228 9.94398 12.7106C9.9346 12.6984 9.92279 12.6882 9.90926 12.6806C9.89573 12.6731 9.88077 12.6684 9.86531 12.6668L8.6817 12.542C8.6557 12.5391 8.6315 12.5276 8.61309 12.5094C8.59469 12.4912 8.58318 12.4674 8.58048 12.442L8.57127 12.3611C8.56931 12.3439 8.5714 12.3264 8.57739 12.3101C8.58337 12.2938 8.59309 12.2791 8.60579 12.2672C8.61848 12.2552 8.63381 12.2463 8.65057 12.2411C8.66733 12.236 8.68507 12.2347 8.7024 12.2374L9.94353 12.4206C9.97062 12.4247 9.99834 12.419 10.0216 12.4045C10.0448 12.3901 10.062 12.3679 10.0701 12.342C11.5366 7.55809 18.2058 6.63189 20.6501 11.2247C20.6629 11.2484 20.6839 11.2669 20.7095 11.2768C20.735 11.2867 20.7633 11.2874 20.7893 11.2786Z"
      fill="#303030" />
  </g>
</svg>
