<?xml version="1.0" encoding="UTF-8"?>
<svg id="Layer_1" data-name="Layer 1" xmlns="http://www.w3.org/2000/svg" viewBox="0 0 24 24">
  <path class="cls-1" d="m20.5,20.28s.03.02.04.03c.01.01.02.03.02.05,0,.02,0,.04,0,.05,0,.02-.01.03-.03.05-1.53,1.52-3.33,2.57-5.39,3.13-6.28,1.72-12.94-1.96-14.69-8.24C-1.19,9.4,1.74,3.2,7.49.88c8.12-3.27,16.84,2.95,16.5,11.64-.07,1.76-.52,3.44-1.35,5.03-.01.02-.03.04-.06.05-.02,0-.05,0-.08,0-.53-.23-1.07-.28-1.63-.17-.74.15-1.02-.3-1.4-.82-.23-.32-.28-.67-.14-1.05,1.09-2.97,0-6.38-2.03-8.67-.02-.02-.02-.04-.03-.06-.04-.72-.07-1.43-.09-2.14-.02-.73-.35-.96-1-.56-.48.3-.96.59-1.44.88-.01,0-.03.01-.04.01-.02,0-.03,0-.05,0-2.69-1.02-5.16-.66-7.4,1.07-.01,0-.03.02-.04.02-.02,0-.03,0-.05,0-.54-.14-1.09-.27-1.64-.4-.52-.12-.86.14-.72.67.18.66.34,1.31.49,1.97,0,.02,0,.05,0,.07-1.19,2.18-1.5,4.46-.93,6.83.92,3.81,4.45,5.32,8.08,4.99,1.24-.11,2.57-.34,3.67-.85.54-.25,1.07-.62,1.59-1.1.01-.01.02-.02.04-.02.01,0,.03,0,.04,0,.01,0,.03,0,.04.01.01,0,.02.02.03.03.64.96,1.52,1.62,2.63,1.97Z"/>
  <path class="cls-1" d="m16.47,8.54l1.14-.39s.03,0,.04,0c.01,0,.03,0,.04.01.01,0,.02.02.03.03s.01.03.02.04v.07s.01.05,0,.07c-.01.02-.03.04-.06.05l-1.07.34s-.03.01-.04.02c-.01,0-.02.02-.03.03,0,.01,0,.03-.01.04s0,.03,0,.04l.09.23s.02.04.04.05c.02.01.04.02.07.01l.98-.12s.04,0,.06.01c.02,0,.03.02.04.04.06.11-.03.16-.13.18-.28.04-.57.07-.85.11-.01,0-.03,0-.04.01-.01,0-.02.02-.03.03,0,.01-.01.03-.02.04s0,.03,0,.04l.06.24s.02.04.03.05c.01.01.03.02.05.03l.92.17s.05.02.06.04c.02.02.02.04.02.07v.05s0,.03,0,.04c0,.01-.02.03-.03.04-.01,0-.03.02-.04.02-.02,0-.03,0-.05,0l-.77-.17s-.03,0-.05,0c-.02,0-.03.01-.04.02-.01.01-.02.03-.03.04,0,.02,0,.03,0,.05.23,1.46-.25,2.59-1.46,3.39-1.57,1.04-5.18,1.33-6.88.6-1.2-.52-1.84-1.51-1.9-2.95,0-.02,0-.03-.01-.05,0-.01-.02-.03-.04-.04-.01,0-.03-.01-.05-.01-.02,0-.03,0-.05,0l-.71.34s-.03.01-.05.01c-.02,0-.03,0-.05-.01-.01,0-.03-.02-.04-.03,0-.01-.02-.03-.02-.04v-.08s0-.05,0-.07c.01-.02.03-.04.05-.04l.87-.35s.03-.02.05-.04c.01-.02.02-.04.02-.06v-.25s0-.03,0-.04-.01-.03-.02-.04c-.01-.01-.02-.02-.04-.02-.01,0-.03,0-.04,0l-.89.07s-.02,0-.03,0c-.01,0-.02,0-.03-.02,0,0-.02-.02-.02-.02,0,0,0-.02,0-.03v-.04s0-.03,0-.04c0-.01.01-.03.02-.04,0-.01.02-.02.03-.03.01,0,.03,0,.04-.01l.96-.08s.04-.01.06-.03c.02-.02.03-.04.03-.06l.03-.18s0-.03,0-.04c0-.01,0-.03-.02-.04,0-.01-.02-.02-.03-.03-.01,0-.03-.01-.04-.01l-1.06-.11s-.05-.01-.06-.03c-.02-.02-.03-.04-.03-.06v-.07s0-.03,0-.05c0-.01.01-.03.03-.04.01-.01.03-.02.04-.02.02,0,.03,0,.05,0l1.12.17s.05,0,.07-.01c.02-.01.04-.03.04-.06,1.32-4.4,7.32-5.25,9.52-1.03.01.02.03.04.05.05.02,0,.05,0,.07,0Z"/>
</svg>
