<svg width="197" height="205" viewBox="0 0 197 205" fill="none" xmlns="http://www.w3.org/2000/svg">
<g filter="url(#filter0_d_1185_1720)">
<rect width="196.626" height="196.626" rx="32" fill="white"/>
</g>
<path d="M132.123 65.0003C129.685 66.1087 127.057 66.837 124.333 67.1853C127.12 65.507 129.273 62.847 130.287 59.6487C127.658 61.232 124.745 62.3403 121.673 62.9737C119.172 60.2503 115.657 58.667 111.667 58.667C104.225 58.667 98.145 64.747 98.145 72.252C98.145 73.3287 98.2717 74.3737 98.4934 75.3553C87.22 74.7853 77.1817 69.3703 70.5 61.1687C69.3284 63.1637 68.6634 65.507 68.6634 67.977C68.6634 72.6953 71.0384 76.8753 74.7117 79.2503C72.4634 79.2503 70.3734 78.617 68.5367 77.667V77.762C68.5367 84.3487 73.2234 89.8587 79.43 91.0937C77.4373 91.639 75.3453 91.7149 73.3184 91.3153C74.1785 94.0148 75.8629 96.3769 78.1349 98.0696C80.4069 99.7623 83.1523 100.7 85.985 100.752C81.1832 104.553 75.231 106.608 69.1067 106.579C68.03 106.579 66.9534 106.515 65.8767 106.389C71.8934 110.252 79.05 112.5 86.7134 112.5C111.667 112.5 125.378 91.7903 125.378 73.8353C125.378 73.2337 125.378 72.6637 125.347 72.062C128.007 70.162 130.287 67.7553 132.123 65.0003Z" fill="#303030"/>
<path d="M73.8 140V142.44H69.52V154H67.08V142.44H62.8V140H73.8ZM80.0975 154H77.6775L74.3375 144H76.7275L78.8975 150.47L81.0575 144H83.4675L85.6275 150.47L87.7975 144H90.1875L86.8475 154H84.4275L82.2575 147.5L80.0975 154ZM92.4758 144H94.9158V154H92.4758V144ZM93.7158 142.71C93.3558 142.71 93.0524 142.593 92.8058 142.36C92.5591 142.12 92.4358 141.82 92.4358 141.46C92.4358 141.107 92.5591 140.81 92.8058 140.57C93.0524 140.33 93.3524 140.21 93.7058 140.21C94.0591 140.21 94.3558 140.33 94.5958 140.57C94.8424 140.81 94.9658 141.107 94.9658 141.46C94.9658 141.82 94.8458 142.12 94.6058 142.36C94.3658 142.593 94.0691 142.71 93.7158 142.71ZM103.48 146.44H101.54V154H99.0995V146.44H97.6195V144H99.0995V140.86H101.54V144H103.48V146.44ZM111.448 146.44H109.508V154H107.068V146.44H105.588V144H107.068V140.86H109.508V144H111.448V146.44ZM118.221 154.26C117.301 154.26 116.461 154.023 115.701 153.55C114.948 153.077 114.344 152.44 113.891 151.64C113.444 150.84 113.221 149.957 113.221 148.99C113.221 148.263 113.351 147.583 113.611 146.95C113.871 146.31 114.228 145.75 114.681 145.27C115.141 144.783 115.674 144.403 116.281 144.13C116.888 143.857 117.534 143.72 118.221 143.72C119.001 143.72 119.714 143.887 120.361 144.22C121.014 144.547 121.568 144.997 122.021 145.57C122.474 146.143 122.804 146.797 123.011 147.53C123.218 148.263 123.264 149.03 123.151 149.83H115.841C115.934 150.203 116.088 150.54 116.301 150.84C116.514 151.133 116.784 151.37 117.111 151.55C117.438 151.723 117.808 151.813 118.221 151.82C118.648 151.827 119.034 151.727 119.381 151.52C119.734 151.307 120.028 151.02 120.261 150.66L122.751 151.24C122.344 152.127 121.738 152.853 120.931 153.42C120.124 153.98 119.221 154.26 118.221 154.26ZM115.761 148H120.681C120.608 147.6 120.451 147.24 120.211 146.92C119.978 146.593 119.688 146.333 119.341 146.14C118.994 145.947 118.621 145.85 118.221 145.85C117.821 145.85 117.451 145.947 117.111 146.14C116.771 146.327 116.481 146.583 116.241 146.91C116.008 147.23 115.848 147.593 115.761 148ZM125.588 154L125.578 144H128.018L128.028 144.89C128.368 144.53 128.775 144.247 129.248 144.04C129.721 143.827 130.231 143.72 130.778 143.72C131.145 143.72 131.511 143.773 131.878 143.88L130.918 146.34C130.665 146.24 130.411 146.19 130.158 146.19C129.765 146.19 129.405 146.287 129.078 146.48C128.758 146.667 128.501 146.923 128.308 147.25C128.121 147.57 128.028 147.927 128.028 148.32V154H125.588Z" fill="black"/>
<defs>
<filter id="filter0_d_1185_1720" x="0" y="0" width="196.626" height="204.626" filterUnits="userSpaceOnUse" color-interpolation-filters="sRGB">
<feFlood flood-opacity="0" result="BackgroundImageFix"/>
<feColorMatrix in="SourceAlpha" type="matrix" values="0 0 0 0 0 0 0 0 0 0 0 0 0 0 0 0 0 0 127 0" result="hardAlpha"/>
<feOffset dy="8"/>
<feComposite in2="hardAlpha" operator="out"/>
<feColorMatrix type="matrix" values="0 0 0 0 0 0 0 0 0 0 0 0 0 0 0 0 0 0 0.15 0"/>
<feBlend mode="normal" in2="BackgroundImageFix" result="effect1_dropShadow_1185_1720"/>
<feBlend mode="normal" in="SourceGraphic" in2="effect1_dropShadow_1185_1720" result="shape"/>
</filter>
</defs>
</svg>
