<svg width="31" height="30" viewBox="0 0 31 30" fill="none" xmlns="http://www.w3.org/2000/svg">
  <g>
    <path
      d="M28.3159 7.5C27.3534 7.9375 26.3159 8.225 25.2409 8.3625C26.3409 7.7 27.1909 6.65 27.5909 5.3875C26.5534 6.0125 25.4034 6.45 24.1909 6.7C23.2034 5.625 21.8159 5 20.2409 5C17.3034 5 14.9034 7.4 14.9034 10.3625C14.9034 10.7875 14.9534 11.2 15.0409 11.5875C10.5909 11.3625 6.62839 9.225 3.99089 5.9875C3.52839 6.775 3.26589 7.7 3.26589 8.675C3.26589 10.5375 4.20339 12.1875 5.65339 13.125C4.76589 13.125 3.94089 12.875 3.21589 12.5V12.5375C3.21589 15.1375 5.06589 17.3125 7.51589 17.8C6.7293 18.0153 5.90351 18.0452 5.10339 17.8875C5.4429 18.9531 6.10781 19.8855 7.00466 20.5537C7.90151 21.2218 8.9852 21.5921 10.1034 21.6125C8.20793 23.113 5.85839 23.9241 3.44089 23.9125C3.01589 23.9125 2.59089 23.8875 2.16589 23.8375C4.54089 25.3625 7.36589 26.25 10.3909 26.25C20.2409 26.25 25.6534 18.075 25.6534 10.9875C25.6534 10.75 25.6534 10.525 25.6409 10.2875C26.6909 9.5375 27.5909 8.5875 28.3159 7.5Z"
      fill="#303030" />
  </g>
</svg>
