<svg width="28" height="28" viewBox="0 0 28 28" fill="none" xmlns="http://www.w3.org/2000/svg">
<path d="M24.2201 6.53155C23.3966 6.90587 22.5089 7.15185 21.5891 7.2695C22.5303 6.70267 23.2575 5.8043 23.5998 4.72412C22.7121 5.25886 21.7282 5.63318 20.6908 5.84708C19.8459 4.92732 18.6587 4.39258 17.3112 4.39258C14.7979 4.39258 12.7445 6.44599 12.7445 8.98067C12.7445 9.3443 12.7873 9.69723 12.8621 10.0288C9.05475 9.83626 5.66448 8.00744 3.40786 5.23747C3.01215 5.91125 2.78756 6.70267 2.78756 7.53687C2.78756 9.1304 3.58968 10.5421 4.83028 11.3442C4.07094 11.3442 3.36508 11.1303 2.74478 10.8095V10.8416C2.74478 13.0661 4.32762 14.927 6.42381 15.3441C5.75082 15.5283 5.04428 15.5539 4.35971 15.419C4.65019 16.3307 5.21908 17.1285 5.98641 17.7001C6.75375 18.2718 7.68094 18.5886 8.63765 18.6061C7.01591 19.8899 5.00567 20.5839 2.93729 20.5739C2.57366 20.5739 2.21004 20.5525 1.84641 20.5097C3.87844 21.8145 6.29548 22.5738 8.88363 22.5738C17.3112 22.5738 21.9421 15.5794 21.9421 9.51542C21.9421 9.31222 21.9421 9.11971 21.9314 8.9165C22.8297 8.27481 23.5998 7.462 24.2201 6.53155Z" fill="#303030"/>
</svg>
