<svg width="68" height="17" viewBox="0 0 68 17" fill="none" xmlns="http://www.w3.org/2000/svg">
  <path fill-rule="evenodd" clip-rule="evenodd"
    d="M67.0984 0.0786342C67.5365 0.282687 67.7338 0.820295 67.5391 1.27942C67.5179 1.32934 67.497 1.37885 67.4762 1.42802C67.1313 2.2427 66.8262 2.96317 66.2563 3.90884C65.678 4.86825 64.8366 6.04512 63.4106 7.82635C63.8522 8.46197 64.2409 9.01125 64.5876 9.50112C66.3002 11.9211 66.9868 12.8914 67.9475 15.6599C68.1113 16.1321 67.8789 16.6541 67.4283 16.8258C66.9778 16.9975 66.4797 16.7539 66.3158 16.2817C65.4456 13.7737 64.9042 13.0078 63.2264 10.6341C62.8409 10.0887 62.3955 9.45855 61.8723 8.7029C61.4794 8.13553 61.5119 7.36447 61.9383 6.83424C63.4343 4.97412 64.2537 3.82437 64.7884 2.9372C65.2895 2.10587 65.5494 1.49219 65.8961 0.673801C65.9147 0.629967 65.9335 0.585546 65.9526 0.540473C66.1473 0.0813532 66.6603 -0.125419 67.0984 0.0786342Z"
    fill="#3DAAFC" />
  <path fill-rule="evenodd" clip-rule="evenodd"
    d="M46.3069 4.52822C45.9852 4.84117 45.6866 5.16953 45.4143 5.51189C44.0932 7.17303 43.3674 9.20199 43.7049 11.3666C44.0371 13.4977 45.045 14.8318 46.5141 15.541C47.901 16.2105 49.6034 16.2738 51.2679 16.1712C51.7465 16.1417 52.1116 15.7112 52.0835 15.2097C52.0553 14.7081 51.6445 14.3254 51.1659 14.3549C49.5509 14.4545 48.2161 14.3594 47.2405 13.8885C46.347 13.4571 45.667 12.6686 45.4183 11.0732C45.1801 9.54495 45.6701 8.03204 46.748 6.67676C47.8313 5.31464 49.4839 4.15133 51.4478 3.3996C51.5344 3.36646 51.6091 3.33666 51.6665 3.31183C51.6926 3.30057 51.7303 3.28381 51.7682 3.26408C51.783 3.25634 51.8252 3.23418 51.8733 3.20069C51.8936 3.18658 51.9508 3.14614 52.0122 3.08123C52.0428 3.04886 52.0992 2.98489 52.1505 2.89056C52.1992 2.80109 52.2813 2.61449 52.2619 2.3651C52.2131 1.7374 51.6786 1.57546 51.6169 1.55843C51.4933 1.52427 51.3916 1.52772 51.3654 1.52861L51.3647 1.52863C51.2942 1.53101 51.2376 1.54211 51.2217 1.54523L51.2211 1.54535C51.1766 1.55408 51.1346 1.5655 51.1083 1.57291C51.0486 1.58973 50.9721 1.61382 50.8843 1.64282C49.3092 2.16331 45.6573 3.22518 40.0716 2.9325C39.5928 2.90741 39.1852 3.29386 39.1613 3.79565C39.1373 4.29745 39.5061 4.72457 39.9849 4.74966C42.4487 4.87876 44.5602 4.75589 46.3069 4.52822ZM51.5645 3.32846C51.5657 3.32815 51.5662 3.32801 51.5662 3.32802C51.5662 3.32803 51.5656 3.32818 51.5645 3.32846Z"
    fill="#3DAAFC" />
  <path fill-rule="evenodd" clip-rule="evenodd"
    d="M27.0762 0.101534C27.5554 0.0857175 27.9561 0.479988 27.9712 0.982162C27.9891 1.57776 28.0087 2.25702 28.0288 2.98564C30.2589 2.81165 32.0714 2.66672 32.2952 2.63585C32.7705 2.57029 33.2065 2.92095 33.2691 3.41908C33.3317 3.91721 32.9971 4.37417 32.5217 4.43973C32.2635 4.47535 30.3694 4.6273 28.0774 4.80631C28.0967 5.56123 28.1156 6.33645 28.133 7.10149C29.1997 7.03145 30.3248 6.92759 31.4304 6.77967C31.906 6.71604 32.3407 7.06848 32.4015 7.56686C32.4622 8.06524 32.1259 8.52083 31.6503 8.58445C30.4838 8.74051 29.2963 8.84936 28.1714 8.9219C28.1723 8.96683 28.1731 9.01164 28.174 9.0563C28.1927 10.0432 28.2069 10.9645 28.2135 11.7419C29.4352 12.1097 30.7979 12.7274 32.2824 13.6782C32.6915 13.9401 32.8204 14.5001 32.5704 14.9288C32.3204 15.3575 31.7862 15.4926 31.3771 15.2306C30.1957 14.474 29.1383 13.9661 28.2057 13.6379C28.2055 13.6421 28.2054 13.6462 28.2053 13.6503C28.2008 13.7857 28.1946 13.9112 28.185 14.0131C28.1804 14.0615 28.1732 14.1261 28.1604 14.1921C28.1542 14.224 28.1426 14.2781 28.1216 14.3402L28.1208 14.3425C28.1116 14.37 28.0796 14.4648 28.0073 14.5724C28.0031 14.5825 27.998 14.595 27.9913 14.6114L27.9895 14.6156C27.9763 14.648 27.9587 14.6907 27.9384 14.7374C27.8538 14.9316 27.7174 15.2034 27.4744 15.4777C26.9717 16.0451 26.1632 16.4602 24.8607 16.5739C23.4834 16.6942 22.3678 16.2197 21.7489 15.3747C21.1334 14.5341 21.0656 13.3295 21.8599 12.4971C22.6065 11.7147 24.2043 11.0764 26.4735 11.3652C26.4661 10.6867 26.4538 9.91442 26.4381 9.09256C26.4376 9.06465 26.4371 9.03668 26.4365 9.00866C24.7599 9.06845 23.3649 9.0481 22.6076 8.99399C22.1293 8.95981 21.768 8.52575 21.8006 8.0245C21.8332 7.52324 22.2474 7.14459 22.7257 7.17877C23.4253 7.22876 24.7697 7.24818 26.3983 7.18954C26.3814 6.441 26.363 5.68191 26.344 4.94107C25.5249 5.00453 24.6947 5.06859 23.9019 5.12977C22.8228 5.21304 21.8131 5.29096 20.9948 5.35472C20.5167 5.39198 20.1003 5.01601 20.0648 4.51497C20.0292 4.01393 20.388 3.57755 20.8661 3.5403C21.7352 3.47257 22.8037 3.39009 23.9355 3.30272C24.7072 3.24314 25.5083 3.1813 26.2957 3.12031C26.2748 2.36248 26.2544 1.6561 26.2358 1.03944C26.2208 0.537265 26.597 0.11735 27.0762 0.101534ZM26.4783 13.1966C24.5001 12.8968 23.3653 13.4926 23.0876 13.7836C23.0138 13.8609 22.946 14.0209 23.1262 14.267C23.3031 14.5085 23.779 14.8427 24.7165 14.7608C25.729 14.6724 26.0779 14.3799 26.2021 14.2397C26.2725 14.1602 26.317 14.0783 26.359 13.9818C26.3703 13.9559 26.3811 13.9299 26.3939 13.8986L26.3975 13.8896C26.4086 13.8626 26.4234 13.8264 26.4381 13.7924C26.4389 13.7906 26.4398 13.7886 26.4408 13.7863C26.4459 13.7743 26.4536 13.7565 26.464 13.7343C26.4661 13.6946 26.4682 13.6459 26.4701 13.5874C26.4737 13.4788 26.4764 13.348 26.4783 13.1966ZM28.0267 14.5285C28.0267 14.5289 28.0243 14.5345 28.0193 14.5439C28.0242 14.5327 28.0267 14.528 28.0267 14.5285Z"
    fill="#3DAAFC" />
  <path fill-rule="evenodd" clip-rule="evenodd"
    d="M5.78219 0.207524C6.25895 0.260426 6.60452 0.708342 6.55404 1.20797C6.49598 1.78263 6.44754 2.4865 6.42181 3.25429C7.61557 3.0118 8.82128 2.66818 9.88507 2.19523C10.3264 1.99901 10.836 2.21489 11.0232 2.67741C11.2105 3.13993 11.0045 3.67395 10.5631 3.87017C9.27369 4.44344 7.81986 4.84126 6.40869 5.10767C6.41945 5.63437 6.4435 6.16665 6.4842 6.68767C7.09205 6.52397 7.73842 6.39173 8.38278 6.30933C9.84361 6.1225 11.5179 6.16138 12.6963 6.90229C14.7417 8.18844 15.5078 10.6461 14.7033 12.8186C13.8919 15.0099 11.6037 16.6611 8.03302 16.7791C7.55383 16.7949 7.15312 16.4007 7.13802 15.8985C7.12291 15.3963 7.49913 14.9764 7.97832 14.9606C11.0755 14.8582 12.5972 13.4771 13.0847 12.1604C13.5793 10.8249 13.1334 9.29897 11.803 8.46244C11.6788 8.38436 11.536 8.31704 11.3767 8.26041C11.3697 8.26929 11.3625 8.27807 11.3552 8.28675C10.9734 8.73685 10.5505 9.25922 10.1033 9.81172C9.25898 10.8547 8.32774 12.0051 7.42175 12.9795C6.71708 13.7374 5.98288 14.4408 5.25262 14.9597C4.53741 15.4679 3.72888 15.8698 2.89363 15.8698C2.3006 15.8698 1.78021 15.7096 1.3557 15.3913C0.936249 15.0767 0.671912 14.6541 0.509892 14.233C0.197634 13.4214 0.221253 12.5059 0.296945 11.909C0.346195 11.5205 0.531648 11.1314 0.731765 10.8003C0.945026 10.4475 1.23077 10.0704 1.57077 9.69306C2.25089 8.93829 3.18964 8.1368 4.30764 7.49188L4.33077 7.47854L4.35463 7.4667C4.49135 7.39883 4.6373 7.33166 4.79119 7.26576C4.77823 7.13095 4.76644 6.99575 4.75574 6.86043C4.71692 6.36961 4.69197 5.87087 4.67841 5.37587C3.10203 5.56931 1.70448 5.60624 0.823263 5.55848C0.344474 5.53252 -0.023585 5.10473 0.00117994 4.60298C0.0259449 4.10123 0.434156 3.71552 0.912944 3.74147C1.75902 3.78733 3.13818 3.74418 4.67655 3.54347C4.69949 2.59161 4.7568 1.71636 4.82753 1.0164C4.87801 0.516767 5.30542 0.154622 5.78219 0.207524ZM5.06322 9.13344C4.14639 9.67464 3.37903 10.3363 2.83306 10.9422C2.55195 11.2542 2.33991 11.5399 2.19845 11.7739C2.05358 12.0136 2.02143 12.1356 2.01826 12.1477C2.01804 12.1485 2.01796 12.1488 2.01798 12.1486C1.95898 12.6139 1.97063 13.1641 2.1201 13.5526C2.18894 13.7315 2.27389 13.8426 2.36603 13.9117C2.45311 13.977 2.6066 14.0504 2.89363 14.0504C3.21582 14.0504 3.67325 13.8837 4.27824 13.4538C4.84578 13.0505 5.45987 12.4759 6.10203 11.7914C5.7021 11.251 5.43144 10.5651 5.23944 9.87008C5.17403 9.63329 5.1155 9.38696 5.06322 9.13344ZM7.31293 10.4223C7.7882 9.8592 8.25472 9.28226 8.71101 8.71798C8.89259 8.49342 9.07256 8.27086 9.25081 8.05198C9.03809 8.0654 8.81842 8.08654 8.59309 8.11536C7.94509 8.19823 7.29965 8.33805 6.71281 8.50645C6.76903 8.81066 6.83361 9.098 6.90712 9.36411C7.03102 9.81258 7.16997 10.1621 7.31293 10.4223Z"
    fill="#3EA8FF" />
</svg>
