<svg width="320" height="240" viewBox="0 0 320 240" fill="none" xmlns="http://www.w3.org/2000/svg">
<mask id="mask0_178_72" style="mask-type:alpha" maskUnits="userSpaceOnUse" x="507" y="307" width="91" height="54">
<path d="M523.465 336.838C510.373 335.7 507.978 342.414 507.978 347.989C507.978 351.118 507.978 354.803 509.836 356.662C511.695 358.52 518.509 360.508 523.465 360.508C532.603 360.508 542.05 361.618 551.342 359.14C556.917 357.411 594.105 335.571 596.564 331.882C599.042 328.165 595.945 327.546 595.325 322.59C594.766 318.115 586.653 304.625 581.697 307.722C579.07 309.364 568.687 320.732 566.829 318.254C565.489 316.467 558.776 306.99 551.342 308.342C544.528 309.581 541.43 318.254 540.811 325.687C540.604 328.165 537.713 338.077 523.465 336.838Z" fill="#FA3F3F"/>
</mask>
<g mask="url(#mask0_178_72)">
<path d="M523.465 336.838C510.34 336.182 507.978 342.414 507.978 347.989C507.978 351.118 507.978 354.803 509.836 356.662C511.695 358.52 518.509 360.508 523.465 360.508C532.603 360.508 542.05 361.618 551.342 359.14C556.917 357.411 594.105 335.571 596.564 331.882C599.042 328.165 595.945 327.546 595.325 322.59C594.766 318.115 586.653 304.625 581.697 307.722C579.07 309.364 568.687 320.732 566.829 318.254C565.489 316.467 558.776 306.99 551.342 308.342C544.528 309.581 541.43 318.254 540.811 325.687C540.604 328.165 535.855 337.458 523.465 336.838Z" fill="#3CABFC"/>
<path fill-rule="evenodd" clip-rule="evenodd" d="M597.579 325.597C597.972 326.158 597.835 326.93 597.275 327.322C596.037 328.189 594.958 329.076 593.68 330.128C593.409 330.35 593.13 330.58 592.838 330.819C591.176 332.177 589.174 333.768 586.271 335.768C580.475 339.763 571.127 345.367 553.754 354.053C553.028 354.417 551.197 355.023 549.254 355.546C547.291 356.074 545.009 356.572 543.354 356.66C539.28 356.877 531.921 356.823 528.365 356.661C521.515 356.35 516.795 355.777 513.529 355.087C510.286 354.401 508.366 353.578 507.217 352.684C506.677 352.264 506.58 351.486 507 350.946C507.42 350.406 508.198 350.308 508.738 350.728C509.448 351.281 510.935 352.006 514.042 352.662C517.125 353.314 521.698 353.877 528.477 354.186C531.974 354.345 539.249 354.398 543.223 354.186C544.604 354.112 546.676 353.673 548.61 353.153C550.562 352.628 552.169 352.076 552.646 351.837C569.965 343.178 579.201 337.632 584.865 333.728C587.693 331.779 589.64 330.233 591.269 328.901C591.547 328.673 591.818 328.451 592.083 328.232C593.365 327.178 594.53 326.219 595.854 325.292C596.414 324.9 597.187 325.036 597.579 325.597Z" fill="#D3F5FF"/>
<path fill-rule="evenodd" clip-rule="evenodd" d="M538.93 326.139C539.365 325.442 540.283 325.231 540.979 325.666C541.301 325.867 541.727 326.124 542.23 326.427C542.352 326.5 542.478 326.576 542.608 326.654C543.268 327.052 544.017 327.506 544.763 327.976C546.206 328.886 547.796 329.951 548.676 330.831C549.257 331.412 549.257 332.353 548.676 332.934C548.096 333.514 547.154 333.514 546.574 332.934C545.967 332.328 544.666 331.431 543.177 330.492C542.457 330.038 541.729 329.597 541.073 329.201C540.949 329.126 540.827 329.053 540.708 328.981C540.203 328.677 539.748 328.403 539.403 328.187C538.707 327.752 538.495 326.835 538.93 326.139ZM533.998 333.536C534.454 332.853 535.377 332.668 536.06 333.123L541.635 336.84C542.318 337.296 542.503 338.219 542.048 338.902C541.592 339.585 540.669 339.77 539.986 339.314L534.41 335.598C533.727 335.142 533.543 334.219 533.998 333.536ZM527.508 335.045C528.156 334.541 529.09 334.658 529.594 335.306C531.073 337.208 534.14 341.074 535.047 341.982C535.628 342.563 535.628 343.504 535.047 344.085C534.467 344.665 533.525 344.665 532.945 344.085C531.87 343.01 528.659 338.947 527.247 337.132C526.743 336.484 526.86 335.549 527.508 335.045Z" fill="#D3F5FF"/>
</g>
<mask id="mask1_178_72" style="mask-type:alpha" maskUnits="userSpaceOnUse" x="389" y="362" width="80" height="72">
<path d="M400.919 410.131C388.169 413.317 388.09 420.445 389.905 425.716C390.924 428.675 392.124 432.159 394.486 433.312C396.849 434.464 403.939 434.125 408.625 432.511C417.265 429.536 426.558 427.51 434.537 422.142C439.246 418.692 467.298 385.934 468.422 381.646C469.555 377.325 466.424 377.748 464.225 373.264C462.239 369.214 450.176 359.101 446.498 363.643C444.549 366.05 438.433 380.179 435.869 378.441C434.021 377.188 424.588 370.413 417.999 374.111C411.959 377.501 411.854 386.71 413.689 393.941C414.3 396.351 414.794 406.664 400.919 410.131Z" fill="#FA3F3F"/>
</mask>
<g mask="url(#mask1_178_72)">
<path d="M400.919 410.131C388.295 413.783 388.09 420.445 389.905 425.716C390.924 428.675 392.124 432.159 394.486 433.312C396.849 434.464 403.939 434.125 408.625 432.511C417.265 429.536 426.558 427.51 434.537 422.142C439.246 418.692 467.298 385.934 468.422 381.646C469.555 377.325 466.424 377.748 464.225 373.264C462.239 369.214 450.176 359.101 446.498 363.643C444.549 366.05 438.433 380.179 435.869 378.441C434.021 377.188 424.588 370.413 417.999 374.111C411.959 377.501 411.854 386.71 413.689 393.941C414.3 396.351 412.835 406.683 400.919 410.131Z" fill="#3CABFC"/>
<path fill-rule="evenodd" clip-rule="evenodd" d="M467.335 375.373C467.888 375.775 468.011 376.55 467.609 377.104C466.721 378.326 465.99 379.516 465.123 380.926C464.94 381.225 464.75 381.533 464.552 381.854C463.423 383.679 462.047 385.835 459.955 388.671C455.775 394.335 448.76 402.678 435.162 416.547C434.594 417.127 433.06 418.296 431.393 419.423C429.709 420.561 427.714 421.776 426.178 422.398C422.396 423.93 415.42 426.274 412.005 427.279C405.427 429.214 400.778 430.21 397.465 430.62C394.175 431.028 392.091 430.874 390.715 430.404C390.067 430.182 389.722 429.478 389.943 428.83C390.164 428.183 390.869 427.838 391.516 428.059C392.367 428.35 394.009 428.551 397.16 428.161C400.288 427.773 404.795 426.817 411.305 424.902C414.664 423.913 421.559 421.595 425.247 420.101C426.53 419.582 428.346 418.492 430.005 417.37C431.68 416.238 433.02 415.193 433.393 414.812C446.949 400.987 453.876 392.735 457.961 387.2C460 384.437 461.337 382.342 462.444 380.551C462.633 380.246 462.816 379.947 462.996 379.654C463.865 378.24 464.654 376.954 465.604 375.647C466.007 375.093 466.781 374.971 467.335 375.373Z" fill="#D3F5FF"/>
<path fill-rule="evenodd" clip-rule="evenodd" d="M412.058 394.98C412.242 394.18 413.041 393.681 413.841 393.866C414.211 393.951 414.698 394.055 415.271 394.178C415.41 394.207 415.554 394.238 415.703 394.27C416.456 394.431 417.312 394.617 418.171 394.818C419.831 395.209 421.681 395.698 422.8 396.244C423.538 396.604 423.845 397.494 423.485 398.232C423.125 398.97 422.235 399.276 421.497 398.916C420.726 398.54 419.204 398.116 417.491 397.713C416.662 397.519 415.83 397.338 415.08 397.177C414.939 397.147 414.8 397.117 414.664 397.088C414.088 396.965 413.568 396.854 413.172 396.763C412.372 396.578 411.873 395.78 412.058 394.98ZM409.802 403.58C410.011 402.785 410.823 402.31 411.618 402.518L418.099 404.218C418.894 404.426 419.369 405.239 419.161 406.033C418.952 406.827 418.14 407.302 417.345 407.094L410.864 405.395C410.069 405.186 409.594 404.374 409.802 403.58ZM404.157 407.12C404.606 406.432 405.527 406.238 406.215 406.687C408.232 408.003 412.391 410.661 413.545 411.224C414.283 411.584 414.589 412.474 414.229 413.212C413.869 413.95 412.979 414.256 412.241 413.896C410.875 413.23 406.516 410.434 404.59 409.177C403.902 408.729 403.709 407.807 404.157 407.12Z" fill="#D3F5FF"/>
</g>
<path fill-rule="evenodd" clip-rule="evenodd" d="M537.5 141.724C540.313 142.974 541.581 146.269 540.33 149.083C540.194 149.389 540.06 149.692 539.926 149.994C537.711 154.987 535.752 159.402 532.091 165.198C528.377 171.078 522.973 178.29 513.814 189.207C516.65 193.102 519.147 196.469 521.373 199.471C532.373 214.302 536.783 220.249 542.953 237.216C544.005 240.11 542.512 243.309 539.619 244.361C536.725 245.414 533.526 243.921 532.474 241.027C526.884 225.656 523.407 220.962 512.631 206.414C510.155 203.072 507.294 199.21 503.934 194.579C501.411 191.102 501.619 186.376 504.358 183.127C513.967 171.726 519.229 164.68 522.663 159.243C525.882 154.148 527.551 150.387 529.778 145.371C529.897 145.103 530.018 144.83 530.14 144.554C531.391 141.74 534.686 140.473 537.5 141.724Z" fill="#3DAAFC"/>
<path fill-rule="evenodd" clip-rule="evenodd" d="M403.963 168.995C401.897 170.913 399.979 172.925 398.231 175.023C389.746 185.204 385.084 197.639 387.251 210.905C389.385 223.965 395.859 232.142 405.294 236.488C414.201 240.592 425.136 240.98 435.826 240.351C438.899 240.17 441.245 237.532 441.064 234.458C440.883 231.384 438.245 229.039 435.171 229.219C424.798 229.83 416.226 229.247 409.959 226.36C404.221 223.717 399.853 218.884 398.256 209.107C396.726 199.741 399.874 190.468 406.796 182.162C413.754 173.814 424.368 166.685 436.981 162.078C437.537 161.875 438.017 161.692 438.386 161.54C438.553 161.471 438.796 161.368 439.039 161.247C439.134 161.2 439.405 161.064 439.714 160.859C439.845 160.772 440.212 160.524 440.606 160.126C440.803 159.928 441.165 159.536 441.495 158.958C441.807 158.41 442.335 157.266 442.21 155.738C441.897 151.891 438.463 150.898 438.068 150.794C437.273 150.584 436.62 150.605 436.452 150.611L436.447 150.611C435.995 150.626 435.632 150.694 435.529 150.713L435.525 150.714C435.239 150.767 434.97 150.837 434.801 150.882C434.417 150.986 433.926 151.133 433.362 151.311C423.246 154.501 399.791 161.009 363.916 159.215C360.841 159.061 358.223 161.43 358.069 164.505C357.916 167.58 360.284 170.198 363.359 170.352C379.183 171.143 392.745 170.39 403.963 168.995ZM437.731 161.642C437.738 161.64 437.742 161.639 437.742 161.639C437.742 161.639 437.738 161.64 437.731 161.642Z" fill="#3DAAFC"/>
<path fill-rule="evenodd" clip-rule="evenodd" d="M280.451 141.866C283.529 141.769 286.102 144.185 286.199 147.263C286.314 150.913 286.44 155.076 286.57 159.542C300.892 158.475 312.534 157.587 313.971 157.398C317.024 156.996 319.824 159.145 320.226 162.198C320.628 165.251 318.479 168.051 315.426 168.453C313.767 168.672 301.603 169.603 286.882 170.7C287.006 175.327 287.127 180.078 287.239 184.766C294.09 184.337 301.316 183.701 308.417 182.794C311.471 182.404 314.264 184.564 314.654 187.618C315.043 190.673 312.883 193.465 309.829 193.855C302.337 194.811 294.71 195.478 287.485 195.923C287.491 196.198 287.496 196.473 287.502 196.747C287.622 202.795 287.713 208.442 287.756 213.206C295.602 215.46 304.354 219.246 313.889 225.073C316.516 226.678 317.344 230.11 315.739 232.737C314.133 235.365 310.702 236.193 308.074 234.587C300.486 229.95 293.695 226.837 287.706 224.826C287.705 224.851 287.704 224.877 287.703 224.902C287.674 225.732 287.634 226.501 287.573 227.125C287.544 227.422 287.497 227.818 287.415 228.223C287.375 228.418 287.301 228.749 287.166 229.13L287.161 229.144C287.101 229.313 286.896 229.894 286.431 230.553C286.404 230.615 286.371 230.692 286.328 230.792L286.317 230.818C286.232 231.017 286.12 231.278 285.989 231.565C285.446 232.755 284.57 234.421 283.009 236.102C279.78 239.579 274.587 242.123 266.222 242.82C257.376 243.557 250.211 240.649 246.236 235.47C242.283 230.319 241.848 222.936 246.949 217.834C251.744 213.039 262.006 209.127 276.581 210.897C276.533 206.739 276.454 202.006 276.353 196.969C276.35 196.798 276.347 196.627 276.343 196.455C265.575 196.821 256.615 196.696 251.751 196.365C248.679 196.155 246.358 193.495 246.568 190.423C246.777 187.351 249.438 185.031 252.51 185.24C257.003 185.546 265.638 185.665 276.098 185.306C275.989 180.718 275.87 176.066 275.749 171.526C270.488 171.915 265.156 172.307 260.064 172.682C253.134 173.193 246.648 173.67 241.393 174.061C238.322 174.289 235.648 171.985 235.42 168.914C235.191 165.844 237.496 163.169 240.566 162.941C246.148 162.526 253.011 162.02 260.28 161.485C265.236 161.12 270.382 160.741 275.438 160.367C275.304 155.722 275.173 151.393 275.054 147.614C274.957 144.536 277.374 141.963 280.451 141.866ZM276.611 222.121C263.906 220.284 256.617 223.935 254.834 225.719C254.36 226.193 253.925 227.173 255.082 228.681C256.218 230.161 259.275 232.209 265.296 231.708C271.799 231.166 274.04 229.373 274.838 228.514C275.29 228.027 275.575 227.525 275.845 226.934C275.918 226.775 275.987 226.615 276.069 226.423L276.093 226.369C276.163 226.203 276.259 225.981 276.353 225.773C276.358 225.762 276.364 225.749 276.37 225.736C276.403 225.662 276.453 225.553 276.52 225.417C276.533 225.173 276.546 224.875 276.559 224.517C276.582 223.851 276.599 223.049 276.611 222.121ZM286.556 230.284C286.556 230.287 286.54 230.321 286.509 230.378C286.54 230.31 286.556 230.281 286.556 230.284Z" fill="#3DAAFC"/>
<path d="M118.941 23.5404V2.47794C118.941 1.10941 117.832 0 116.463 0H87.3474C56.9926 0 39.0276 25.3989 39.0276 47.7004V137.526C39.0276 170.175 21.3938 175.52 2.47867 175.909C1.11043 175.937 0 177.043 0 178.412V199.474C30.9743 199.474 38.3238 221.156 38.4081 231.687L58.8511 208.147C52.4236 199.309 42.577 194.216 37.0979 191.614C36.0588 191.121 36.1959 189.61 37.2872 189.246C55.5448 183.161 69.3823 165.071 69.3823 137.968V48.9393C69.3823 40.2665 74.3382 26.0184 95.4007 26.0184H116.457C117.826 26.0184 118.941 24.909 118.941 23.5404Z" fill="#3EA8FF"/>
<path d="M118.941 356.824V377.887C118.941 379.255 117.832 380.365 116.463 380.365H87.3474C56.9926 380.365 39.0276 354.966 39.0276 332.664V242.839C39.0276 210.19 21.3938 204.845 2.47867 204.455C1.11043 204.427 0 203.321 0 201.953V180.271C30.9743 180.271 38.3238 159.208 38.4081 148.677L58.8511 172.217C52.415 181.067 42.5506 186.57 37.0759 189.323C36.0482 189.839 36.1964 191.373 37.2887 191.733C55.5456 197.758 69.3823 215.294 69.3823 242.397V331.425C69.3823 340.098 74.3382 354.346 95.4007 354.346H116.457C117.826 354.346 118.941 355.456 118.941 356.824Z" fill="#3EA8FF"/>
<path d="M555.059 356.824L555.059 377.887C555.059 379.255 556.168 380.364 557.537 380.364L586.653 380.364C617.007 380.364 634.972 354.966 634.972 332.664L634.972 242.839C634.972 210.19 652.606 204.845 671.521 204.455C672.89 204.427 674 203.321 674 201.953L674 180.89C643.026 180.89 635.676 159.208 635.592 148.677L615.149 172.217C621.576 181.055 631.423 186.148 636.902 188.75C637.941 189.244 637.804 190.755 636.713 191.119C618.455 197.204 604.618 215.293 604.618 242.397L604.618 331.425C604.618 340.098 599.662 354.346 578.599 354.346L557.543 354.346C556.174 354.346 555.059 355.456 555.059 356.824Z" fill="#3DAAFC"/>
<path d="M555.059 23.5402L555.059 2.47769C555.059 1.10916 556.168 -0.000254442 557.537 -0.000254322L586.653 -0.000251777C617.007 -0.000249123 634.972 25.3986 634.972 47.7001L634.972 137.525C634.972 170.174 652.606 175.52 671.521 175.909C672.89 175.937 674 177.043 674 178.411L674 200.093C643.026 200.093 635.676 221.156 635.592 231.687L615.149 208.147C621.585 199.297 631.449 193.794 636.924 191.042C637.952 190.525 637.804 188.991 636.711 188.631C618.454 182.606 604.618 165.07 604.618 137.967L604.618 48.9391C604.618 40.2663 599.662 26.0181 578.599 26.0181L557.543 26.0181C556.174 26.0181 555.059 24.9087 555.059 23.5402Z" fill="#3DAAFC"/>
<path fill-rule="evenodd" clip-rule="evenodd" d="M143.688 142.512C146.75 142.836 148.97 145.581 148.645 148.643C148.272 152.165 147.961 156.479 147.796 161.185C155.463 159.698 163.207 157.593 170.039 154.694C172.874 153.491 176.147 154.814 177.349 157.649C178.552 160.484 177.229 163.757 174.394 164.959C166.113 168.473 156.775 170.911 147.712 172.543C147.781 175.771 147.935 179.033 148.197 182.227C152.101 181.223 156.252 180.413 160.391 179.908C169.773 178.763 180.526 179.001 188.095 183.542C201.232 191.424 206.152 206.487 200.985 219.801C195.774 233.231 181.077 243.351 158.144 244.074C155.067 244.171 152.493 241.754 152.396 238.677C152.299 235.599 154.715 233.026 157.793 232.929C177.685 232.301 187.458 223.837 190.59 215.767C193.766 207.582 190.902 198.23 182.358 193.104C181.56 192.625 180.643 192.213 179.619 191.866C179.575 191.92 179.529 191.974 179.481 192.027C177.029 194.785 174.313 197.987 171.441 201.373C166.018 207.765 160.037 214.815 154.218 220.787C149.693 225.432 144.977 229.743 140.287 232.923C135.693 236.038 130.5 238.501 125.136 238.501C121.327 238.501 117.985 237.519 115.258 235.568C112.564 233.641 110.867 231.05 109.826 228.47C107.821 223.496 107.972 217.885 108.458 214.226C108.775 211.846 109.966 209.461 111.251 207.432C112.621 205.269 114.456 202.958 116.64 200.646C121.008 196.02 127.037 191.108 134.218 187.155L134.366 187.074L134.519 187.001C135.398 186.585 136.335 186.173 137.323 185.77C137.24 184.943 137.164 184.115 137.096 183.285C136.846 180.277 136.686 177.221 136.599 174.187C126.474 175.373 117.499 175.599 111.839 175.306C108.764 175.147 106.4 172.525 106.559 169.45C106.718 166.375 109.34 164.011 112.415 164.17C117.849 164.451 126.707 164.187 136.587 162.957C136.734 157.123 137.102 151.759 137.557 147.469C137.881 144.407 140.626 142.188 143.688 142.512ZM139.07 197.216C133.182 200.533 128.253 204.588 124.747 208.302C122.941 210.213 121.58 211.964 120.671 213.399C119.741 214.868 119.534 215.615 119.514 215.689C119.512 215.694 119.512 215.696 119.512 215.695C119.133 218.547 119.208 221.919 120.168 224.3C120.61 225.396 121.156 226.077 121.747 226.5C122.307 226.9 123.292 227.35 125.136 227.35C127.205 227.35 130.143 226.329 134.029 223.694C137.674 221.222 141.618 217.701 145.742 213.506C143.174 210.194 141.435 205.99 140.202 201.731C139.782 200.279 139.406 198.77 139.07 197.216ZM153.519 205.115C156.572 201.664 159.568 198.128 162.499 194.67C163.665 193.294 164.821 191.93 165.966 190.588C164.6 190.67 163.189 190.8 161.741 190.977C157.58 191.484 153.434 192.341 149.665 193.373C150.026 195.238 150.441 196.999 150.913 198.63C151.709 201.378 152.601 203.52 153.519 205.115Z" fill="#3EA8FF"/>
<path fill-rule="evenodd" clip-rule="evenodd" d="M296.459 406.788C294.406 406.788 292.742 408.452 292.742 410.505V448.913H235.9C235.037 448.913 234.236 449.362 233.786 450.098L216.371 478.595C215.362 480.246 216.55 482.365 218.485 482.365H455.514C457.464 482.365 458.65 480.217 457.611 478.567L439.669 450.07C439.216 449.35 438.424 448.913 437.572 448.913H381.948V410.505C381.948 408.452 380.284 406.788 378.231 406.788H296.459Z" fill="#3CABFC"/>
</svg>
