<svg width="531" height="167" viewBox="0 0 531 167" fill="none" xmlns="http://www.w3.org/2000/svg">
<path d="M15 152C94.5 124 115.329 126.892 189.556 91.9617C194.202 89.7752 198.788 86.2779 203.506 84.3908C205.176 83.7226 201.222 92.4493 200.982 92.9431C198.18 98.7169 194.875 102.423 202.174 104.369C240.484 114.585 276.747 98.5178 308.937 79.0632C321.178 71.6652 333.126 63.7325 344.828 55.5094C347.876 53.3682 349.565 51.1741 349.806 56.3506C350.221 65.2728 349.499 74.2916 348.333 83.129C347.498 89.4643 344.409 98.798 346.09 105.281C335.041 113.993 500.707 20.9105 516 15" stroke="#D6EAF3" stroke-width="28" stroke-linecap="round"/>
</svg>
