<svg width="384" height="150" viewBox="0 0 384 150" fill="none" xmlns="http://www.w3.org/2000/svg">
<path d="M15 135C71.1737 110.474 85.8914 113.007 138.339 82.4117C141.622 80.4965 144.862 77.4332 148.196 75.7803C149.376 75.195 146.582 82.8388 146.412 83.2713C144.433 88.3287 142.097 91.5751 147.255 93.2798C174.324 102.228 199.947 88.1543 222.692 71.1138C231.341 64.6338 239.784 57.6854 248.052 50.4827C250.205 48.6072 251.399 46.6853 251.569 51.2195C251.862 59.0346 251.352 66.9343 250.529 74.6751C249.939 80.2242 247.756 88.3997 248.944 94.0781C241.137 101.709 358.194 20.1771 369 15" stroke="#D6EAF3" stroke-width="28" stroke-linecap="round"/>
</svg>
