<svg width="288" height="154" viewBox="0 0 288 154" fill="none" xmlns="http://www.w3.org/2000/svg">
<path fill-rule="evenodd" clip-rule="evenodd" d="M285.124 5.60464C289.838 11.8441 288.631 20.7464 282.429 25.4884C269.362 35.48 257.252 46.8531 244.771 58.8601C243.272 60.3019 241.767 61.7548 240.253 63.2155C229.326 73.7575 217.98 84.7042 205.907 94.8136C205.599 95.072 205.167 95.4479 204.63 95.9156C201.508 98.6352 194.821 104.46 188.021 108.343C184.072 110.599 178.351 113.268 171.955 113.476C165.889 113.673 159.885 111.59 155.297 106.892C148.344 111.616 141.131 114.803 131.386 115.377C131.28 115.384 130.99 115.408 130.574 115.442C129.076 115.566 125.952 115.823 123.976 115.87C121.106 115.938 115.973 115.873 111.07 113.666C107.694 112.146 105.171 109.597 103.628 106.656C102.244 104.02 101.899 101.565 101.789 100.171C101.677 98.7578 101.752 97.5426 101.78 97.0805L101.781 97.0757C101.793 96.8829 101.8 96.7552 101.805 96.6763V82.0857C91.98 89.3169 82.5652 97.2173 73.0075 105.65C66.4207 111.461 59.486 117.709 52.4838 124.019C44.2349 131.452 35.8924 138.969 27.9153 145.955C27.5958 146.234 27.2377 146.529 26.8984 146.801C24.166 151.652 18.713 154.624 12.8715 153.889C11.6137 153.731 5.70595 152.898 2.12022 146.994C-1.82161 140.503 0.798099 134.408 1.55475 132.873C2.53501 130.884 3.76155 129.512 4.27298 128.958C4.9251 128.25 5.56227 127.665 6.02588 127.257C6.93377 126.458 7.90948 125.701 8.47968 125.259L8.49069 125.251C8.98765 124.866 9.22427 124.68 9.32761 124.6C9.39161 124.55 9.4045 124.539 9.39645 124.547C17.7002 117.275 25.4417 110.293 33.2671 103.235C40.1066 97.0659 47.0101 90.8393 54.4088 84.3117C68.0345 72.2904 82.1373 60.6358 97.9129 50.2975C97.7487 50.4051 97.496 50.566 99.0415 49.4673C100.015 48.7756 101.375 47.83 102.818 46.9108C104.114 46.0847 106.064 44.8985 108.074 44.0302C108.93 43.6602 110.886 42.8548 113.325 42.5904C115.023 42.4062 123.393 41.9392 127.844 50.0795C128.62 51.5003 129.02 52.7757 129.221 53.5091C129.443 54.3162 129.577 55.0325 129.66 55.5616C129.825 56.6052 129.893 57.5567 129.927 58.1963C129.977 59.1527 129.991 61.0854 129.975 60.3447C130.053 63.8852 130.038 67.522 130.024 70.9309C130.019 72.2082 130.014 73.4534 130.014 74.6496V87.0281C133.49 86.7846 135.924 85.8551 139.842 83.145C140.603 82.6185 141.112 82.1971 141.904 81.5424C142.54 81.0159 143.358 80.3386 144.637 79.3345C146.739 77.6834 150.179 75.1175 154.484 73.5703C157.251 72.5764 160.686 72.1966 164.286 73.2728C167.744 74.3066 170.13 76.3184 171.604 77.9774C173.192 79.7644 174.217 81.7123 174.858 83.2141C178.655 80.9166 182.288 77.785 185.438 75.0708C186.282 74.3427 187.092 73.6446 187.861 73.0007C199.116 63.5765 209.699 53.369 220.698 42.7601C222.215 41.2969 223.74 39.8261 225.276 38.3487C237.78 26.3181 250.9 13.9502 265.361 2.89323C271.562 -1.84877 280.411 -0.634826 285.124 5.60464ZM176.845 89.4757C176.844 89.4788 176.828 89.4353 176.797 89.3364C176.829 89.4232 176.845 89.4726 176.845 89.4757ZM121.654 87.4414C121.654 87.4411 121.665 87.4428 121.687 87.4473C121.664 87.4439 121.654 87.4417 121.654 87.4414ZM129.935 98.8451C129.933 98.8828 129.932 98.9034 129.932 98.9039C129.932 98.9045 129.932 98.8858 129.935 98.8451ZM16.7686 125.784C16.5929 125.756 16.4605 125.739 16.3791 125.729L16.3728 125.728C16.5054 125.745 16.6374 125.764 16.7686 125.784Z" fill="#D6EAF3"/>
</svg>
